<svg width="286" height="286" viewBox="0 0 286 286" fill="none" xmlns="http://www.w3.org/2000/svg">
<g clip-path="url(#clip0_1299_22582)">
<path d="M38.8011 108.297H212.314V281.809H38.8011V108.297Z" fill="#FE91AB"/>
<path d="M21.5638 90.9457H195.076V264.458H21.5638V90.9457Z" fill="#8ACA89"/>
<path d="M195.077 233.341V90.9457H55.9392L84.4856 252.841L195.077 233.341Z" fill="#7CC27C"/>
<path d="M63.451 69.0053L234.361 38.8141L264.552 209.724L93.6422 239.915L63.451 69.0053Z" fill="#FFDD94"/>
<path d="M218.1 41.6826L234.356 38.8111L264.547 209.721L248.291 212.593L218.1 41.6826Z" fill="#FFCE7E"/>
<path d="M152.438 36.101C160.497 30.9072 162.82 20.1636 157.626 12.1046C152.432 4.0455 141.689 1.72277 133.629 6.9166C125.57 12.1104 123.248 22.854 128.441 30.9131C133.635 38.9721 144.379 41.2949 152.438 36.101Z" fill="#918291"/>
<path d="M142.966 4.18945C139.927 4.18945 137.071 4.97093 134.587 6.34339C139.936 9.29891 143.559 14.9966 143.559 21.5405C143.559 28.0844 139.936 33.7821 134.587 36.7376C137.071 38.1101 139.927 38.8915 142.966 38.8915C152.549 38.8915 160.317 31.1232 160.317 21.5405C160.317 11.9578 152.549 4.18945 142.966 4.18945Z" fill="#867885"/>
<path d="M268.552 209.041L249.029 98.3214C248.628 96.0424 246.454 94.5224 244.176 94.923C241.898 95.3246 240.376 97.4975 240.778 99.776L259.573 206.37L96.945 235.046L68.2696 72.4228L138.776 59.9907V73.5942C138.776 75.9079 140.652 77.7836 142.966 77.7836C145.28 77.7836 147.156 75.9079 147.156 73.5942V58.5133L230.898 43.7474L237.606 81.8005C238.007 84.079 240.179 85.6017 242.459 85.1995C244.738 84.7979 246.26 82.625 245.858 80.3465L238.422 38.167C238.075 35.9422 235.779 34.3351 233.569 34.7686L147.155 50.0048V42.6721C157.034 40.717 164.506 31.9851 164.506 21.541C164.506 9.66311 154.843 0 142.965 0C131.088 0 121.425 9.66311 121.425 21.5405C121.425 31.9851 128.897 40.7165 138.776 42.6715V51.4822L62.6887 64.8985C60.4644 65.246 58.8556 67.5429 59.2902 69.7516L62.2882 86.7541H21.5662C19.2525 86.7541 17.3767 88.6298 17.3767 90.9435V155.4C17.3767 157.714 19.2525 159.59 21.5662 159.59C23.8799 159.59 25.7556 157.714 25.7556 155.4V95.1335H63.7657L89.4208 240.627C89.8118 242.918 92.049 244.434 94.2744 244.025L190.888 226.99V260.271H25.7556V173.661C25.7556 171.347 23.8799 169.471 21.5662 169.471C19.2525 169.471 17.3767 171.347 17.3767 173.661V264.461C17.3767 266.774 19.2525 268.65 21.5662 268.65H34.6093V281.811C34.6093 284.124 36.4851 286 38.7988 286H212.315C214.629 286 216.505 284.124 216.505 281.811V259.511C216.505 257.198 214.629 255.322 212.315 255.322C210.001 255.322 208.126 257.198 208.126 259.511V277.621H42.9882V268.65H195.077C197.391 268.65 199.267 266.774 199.267 264.461V225.512L208.126 223.95V241.257C208.126 243.57 210.001 245.446 212.315 245.446C214.629 245.446 216.505 243.57 216.505 241.257V222.472L265.154 213.894C267.379 213.547 268.987 211.25 268.552 209.041ZM129.804 21.5405C129.804 14.2832 135.708 8.37891 142.965 8.37891C150.223 8.37891 156.127 14.2832 156.127 21.5405C156.127 28.7977 150.223 34.7021 142.965 34.7021C135.708 34.7026 129.804 28.7983 129.804 21.5405Z" fill="black"/>
<path d="M209.886 100.307C212.165 99.9051 213.686 97.7321 213.284 95.4536C212.882 93.1746 210.707 91.6552 208.43 92.0552L105.904 110.133C103.626 110.535 102.104 112.707 102.506 114.986C102.897 117.278 105.134 118.794 107.359 118.384L209.886 100.307Z" fill="black"/>
<path d="M216.296 112.541C215.895 110.262 213.721 108.743 211.443 109.143L108.917 127.221C106.639 127.623 105.117 129.795 105.519 132.074C105.91 134.365 108.147 135.882 110.372 135.472L212.898 117.394C215.177 116.992 216.699 114.82 216.296 112.541Z" fill="black"/>
<path d="M163.194 135.27L111.931 144.309C109.653 144.71 108.131 146.883 108.533 149.162C108.924 151.454 111.161 152.97 113.386 152.561L164.649 143.522C166.927 143.12 168.449 140.947 168.047 138.668C167.645 136.389 165.471 134.869 163.194 135.27Z" fill="black"/>
<path d="M187.03 174.748C187.272 174.748 187.517 174.727 187.762 174.683L221.938 168.657C224.216 168.256 225.738 166.083 225.336 163.804C224.934 161.526 222.761 160.004 220.482 160.406L186.307 166.432C184.028 166.834 182.507 169.006 182.909 171.285C183.267 173.318 185.035 174.748 187.03 174.748Z" fill="black"/>
</g>
<defs>
<clipPath id="clip0_1299_22582">
<rect width="286" height="286" fill="white"/>
</clipPath>
</defs>
</svg>
