<svg xmlns="http://www.w3.org/2000/svg" width="24" height="24" viewBox="0 0 24 24">
  <path fill-rule="nonzero" d="M 0 0 L 1.4460912963360697 16.535172002899156 C 1.4713568722832382 16.82396831798724 1.7131843369898458 17.04559326171875 2.0031056600223662 17.04559326171875 L 12.342772941051852 17.04559326171875 C 12.632694264084373 17.04559326171875 12.874523159299745 16.824015211852316 12.899788735246913 16.535172002899156 L 14.345878601074217 0 L 0 0 Z" fill="rgb(255,244,222)"/>
  <path fill-rule="nonzero" d="M 11.448867858556417 0 L 10.125777448936955 15.128924677928755 C 10.100511873393117 15.41772099301684 9.858684412546962 15.639345936748349 9.56876309414265 15.639345936748349 L 0 15.639345936748349 L 0.07832750614245684 16.535172002899156 C 0.10359308168629415 16.82396831798724 0.3454212577868191 17.04559326171875 0.6353425761911319 17.04559326171875 L 10.975010407415974 17.04559326171875 C 11.264931725820286 17.04559326171875 11.50675918666644 16.824015211852316 11.532024762210277 16.535172002899156 L 12.978116035461426 0 L 11.448867858556417 0 Z" fill="rgb(255,230,193)"/>
  <path fill-rule="nonzero" d="M 15.297769089435354 2.9058690071105957 L 0.7632171910915504 2.9058690071105957 C 0.34171800950623826 2.9058690071105957 0 2.5641513507844818 0 2.142652163713839 L 0 0.7632172010239505 C 0 0.34171801395330786 0.34171800950623826 0 0.7632171910915504 0 L 15.297814865715562 0 C 15.719314047300875 0 16.061031341552734 0.34171801395330786 16.061031341552734 0.7632172010239505 L 16.061031341552734 2.142652163713839 C 16.060984466639574 2.5641513507844818 15.71931516488584 2.9058690071105957 15.297769089435354 2.9058690071105957 Z" fill="rgb(255,192,130)"/>
  <path fill-rule="nonzero" d="M 0 3.3453817367553715 L 0.6374987188399887 0.6982615068706537 C 0.7411391455761044 0.26790295609047027 1.138919710715824 -0.02581519932730687 1.5807157563619556 0.0017941229038420986 L 12.22127407460312 0.6668084634458407 C 12.613945197726672 0.6913709165430694 12.946615631378108 0.9650267167492389 13.046318571575751 1.3456509925373132 L 13.570286750793457 3.345334529965864 L 0 3.345334529965864 L 0 3.3453817367553715 Z" fill="rgb(255,140,76)"/>
  <path fill-rule="nonzero" d="M 1.406247372768646 0 L 0 0 C 0.42149919500745603 0 0.7632165001408998 0.34171801395330786 0.7632165001408998 0.7632172010239505 L 0.7632165001408998 2.142652163713839 C 0.7632165001408998 2.5641513507844818 0.42149919500745603 2.9058690071105957 0 2.9058690071105957 L 1.406247372768646 2.9058690071105957 C 1.827746567776102 2.9058690071105957 2.169463872909546 2.5641513507844818 2.169463872909546 2.142652163713839 L 2.169463872909546 0.7632172010239505 C 2.169463872909546 0.34171801395330786 1.8277934616427691 0 1.406247372768646 0 Z" fill="rgb(255,172,101)"/>
  <path fill-rule="nonzero" d="M 0.44217025249957326 0.6263893783569965 L 0.9439197636415105 2.7425105571746826 L 2.3723857402801514 2.7425105571746826 L 1.8484175673400147 0.7428267100233573 C 1.748667756823858 0.3622024433535165 1.4160427681623802 0.08854669440644214 1.0233716497433507 0.06398424189763142 L 0 0 C 0.213937097577388 0.13040600363087537 0.37738912762643234 0.35315552611122447 0.44217025249957326 0.6263893783569965 Z" fill="rgb(247,124,55)"/>
  <path fill-rule="nonzero" d="M 14.200158024628205 8.448405626800106 L 14.893860343660043 0.5162334001593095 C 14.918141547335978 0.23868706139676776 14.699375842600949 0 14.420798260176037 0 L 0.47490457872441605 0 C 0.19632699629950462 0 -0.022438361984192114 0.23873393290871403 0.0018428416917423713 0.5162334001593095 L 0.6955444566450641 8.448405626800106 C 0.717013165611208 8.69370201841527 0.9223722906365501 8.881905555725098 1.1686061825018883 8.881905555725098 L 13.727050164864936 8.881905555725098 C 13.973284056730273 8.881905555725098 14.178689315662062 8.69370201841527 14.200158024628205 8.448405626800106 Z" fill="rgb(243,92,71)"/>
  <path fill-rule="nonzero" d="M 2.0029183000094934 0 L 0.6937009193186584 0 C 0.972278514110499 0 1.1910442285572211 0.23873392650029862 1.1667630238033682 0.5162333863018825 L 0.47306067397591917 8.448404684762377 C 0.45159196405671226 8.693701069792965 0.24623390279642982 8.881904602050781 0 8.881904602050781 L 1.3092159501820444 8.881904602050781 C 1.5554498529784742 8.881904602050781 1.7608562204530809 8.693701069792965 1.7822780546667543 8.448404684762377 L 2.475978973985413 0.5162333863018825 C 2.5002601787392655 0.23873392650029862 2.281495894801334 0 2.0029183000094934 0 Z" fill="rgb(215,77,55)"/>
  <path fill-rule="nonzero" d="M 4.661616802215576 2.808416962622913 C 4.661616802215576 4.3594625171640216 3.618078537638313 5.616833209991455 2.33080875873498 5.616833209991455 C 1.043538979831647 5.616833209991455 0 4.3594625171640216 0 2.808416962622913 C 0 1.2573714080818046 1.043538979831647 0 2.33080875873498 0 C 3.618078537638313 0 4.661616802215576 1.2573714080818046 4.661616802215576 2.808416962622913 Z" fill="rgb(255,172,101)"/>
  <path fill-rule="nonzero" d="M 15.649329942786572 3.3453988401389445 L 15.43853304662884 3.3453988401389445 L 14.983282246395255 1.6081207120478396 C 14.844813768337408 1.079606112991552 14.38539278947072 0.701606816712964 13.840096967164632 0.6675287568011584 L 3.1995407728467815 0.002514404105485146 C 2.5860419629746696 -0.03592302224561369 2.0364803526476187 0.3700137829512642 1.8926212597225558 0.967528256122688 L 1.31995073182663 3.3453988401389445 L 1.1147789533748684 3.3453988401389445 C 0.5000613948218341 3.3453988401389445 0 3.8454602626075496 0 4.460177855146322 L 0 5.83961278988463 C 0 6.375533624457007 0.380155443096179 6.824220102268489 0.8849044360063207 6.930438651192459 L 1.0758262023713598 9.11354377069418 C 0.9721389108786498 9.159246809640077 0.8777796646557877 9.226184342765203 0.7998735703287757 9.311168553971836 C 0.6437332475734003 9.481558853530863 0.5657333166275662 9.711292690838075 0.5858426517020333 9.941542260075815 L 1.2795445840174082 17.873714687867217 C 1.3112320217817715 18.236057747646253 1.5677311944008965 18.522462820605387 1.9057930259014964 18.604025165484483 L 2.3049800457107716 23.1686112048573 C 2.3464643388451343 23.64256342872555 2.7365106429648502 23.99993705758243 3.212197198278421 23.99993705758243 L 10.870056991297135 23.99993705758243 C 11.064212869537977 23.99993705758243 11.221618801308969 23.842531117108972 11.221618801308969 23.648375228133883 C 11.221618801308969 23.454219339158794 11.064212869537977 23.296813398685337 10.870056991297135 23.296813398685337 L 3.2122436898100997 23.296813398685337 C 3.103822029301179 23.296813398685337 3.0149474140764285 23.215345165635547 3.005478682330422 23.107345376278108 L 2.613744612676427 18.62821363787277 L 14.150362852976347 18.62821363787277 L 13.758629498576685 23.10739258306673 C 13.749207641833674 23.21539237242417 13.660285436351595 23.29686060547396 13.551863775842675 23.29686060547396 L 12.604475078887198 23.29686060547396 C 12.410319200646356 23.29686060547396 12.252913268875362 23.454266545947416 12.252913268875362 23.648422434922505 C 12.252913268875362 23.842578323897595 12.410319200646356 23.999982833862305 12.604475078887198 23.999982833862305 L 13.551863775842675 23.999982833862305 C 14.027644074177333 23.999982833862305 14.417690383884972 23.64256342872555 14.459080928410323 23.1686112048573 L 14.858267232965265 18.604072372273105 C 15.196329064465864 18.52251002739401 15.452874753762329 18.236104954434875 15.484515317222186 17.87376189465584 L 16.17821760716473 9.941588751610064 C 16.198326942239195 9.711386076237158 16.12032808417486 9.481605345065113 15.964187761419486 9.311215045506085 C 15.886281667092474 9.226183957198392 15.791921347988112 9.159293301174326 15.688234056495402 9.11359026222843 L 15.879155465233273 6.930485142726708 C 16.383951352005656 6.8242197222896035 16.76405954361243 6.375533624457008 16.76405954361243 5.839659639046067 L 16.76405954361243 4.460177855146322 C 16.76410641852266 3.8454602626075496 16.264047501339608 3.3453988401389445 15.649329942786572 3.3453988401389445 Z M 2.5761980516926193 1.1321529013562943 C 2.63999479875586 0.867215909008447 2.8836040154034506 0.687263067797041 3.1557128483059995 0.7042786605993951 L 13.79626904262385 1.3693399239236768 C 14.038049817738361 1.3844336449893817 14.241769384024401 1.5520583813843891 14.303175510824264 1.7863860628369512 L 14.711688731888309 3.3454456893003806 L 2.043183727437219 3.3454456893003806 L 2.5761980516926193 1.1321529013562943 Z M 14.784112524683227 17.812496066076648 C 14.778487535848766 17.876667816711706 14.72570485580797 17.925089978975677 14.661251857305801 17.925089978975677 L 2.102855250719806 17.925089978975677 C 2.0384022522176366 17.925089978975677 1.9856210026855075 17.876714693812765 1.9799960138510464 17.812496066076648 L 1.2862944391628381 9.880323638285246 C 1.282169447281051 9.833261230463718 1.304528767132548 9.801198612089161 1.3182162400678434 9.78624551534173 C 1.3319037130031388 9.771292418594298 1.3619037959456721 9.746261365378691 1.4091068268727525 9.746261365378691 L 2.2943392069909923 9.746261365378691 C 2.4884950852318344 9.746261365378691 2.645901017002827 9.588855424905237 2.645901017002827 9.394699535930146 C 2.645901017002827 9.200543646955055 2.4884950852318344 9.0431377064816 2.2943392069909923 9.0431377064816 L 1.7754339897186109 9.0431377064816 L 1.5927626820907268 6.954391089637634 L 15.171251085244355 6.954391089637634 L 14.988580850497971 9.0431377064816 L 3.981835895047799 9.0431377064816 C 3.7876800168069567 9.0431377064816 3.630274085035964 9.200543646955055 3.630274085035964 9.394699535930146 C 3.630274085035964 9.588855424905237 3.7876800168069567 9.746261365378691 3.981835895047799 9.746261365378691 L 15.354954147248343 9.746261365378691 C 15.402157178175424 9.746261365378691 15.432158333999457 9.771339294298375 15.445845806934752 9.78624551534173 C 15.459533279870048 9.801198612089161 15.481891169212876 9.833261230463718 15.47776617733109 9.880323638285246 L 14.784112524683227 17.812496066076648 Z M 16.060984560883437 5.83961278988463 C 16.060984560883437 6.066627978847373 15.876345119198383 6.251267430740543 15.649329942786572 6.251267430740543 L 1.1147321042160228 6.251267430740543 C 0.8877169278042116 6.251267430740543 0.7030767708648238 6.066581107334239 0.7030767708648238 5.83961278988463 L 0.7030767708648238 4.460177855146322 C 0.7030767708648238 4.233209537696713 0.8877169278042116 4.048522499036036 1.1147321042160228 4.048522499036036 L 15.649329942786572 4.048522499036036 C 15.876345119198383 4.048522499036036 16.060984560883437 4.233209537696713 16.060984560883437 4.460177855146322 L 16.060984560883437 5.83961278988463 Z" fill="rgb(0,0,0)"/>
  <path fill-rule="nonzero" d="M 2.6894481049980707 0.00014090511446878724 C 2.686026236435467 0.00009403020065947308 2.6826504186614235 0 2.6792285500988196 0 C 1.2015906495737285 0.0020156212665157196 0 1.4187165560487625 0 3.1598851682522984 C 0 4.9015224508936805 1.2022480577761903 6.318550490139874 2.680401567318498 6.31981611278544 C 2.6810578161138303 6.31981611278544 2.681666491847592 6.319957733154297 2.682322740642924 6.319957733154297 C 2.682885239597878 6.319957733154297 2.6834954488678116 6.31981611278544 2.6840579478227657 6.31981611278544 C 4.162352094261915 6.318737989816938 5.364739894866943 4.901616328032127 5.364739894866943 3.1598851682522984 C 5.364786769781675 1.4203103216391941 4.165257815271028 0.004687771672117893 2.6894481049980707 0.00014090511446878724 Z M 0.703123687581195 3.1599323750419175 C 0.703123687581195 1.9117003680913636 1.4571065229086986 0.8786702793116892 2.429292197542148 0.7238424476051472 L 2.763322440679362 1.8073562863348902 C 2.8910565727862725 2.221683618014228 2.7672135810894654 2.6789018049275555 2.447901686579713 2.9721981252710976 C 1.9134339141658707 3.463072205089003 1.718855592490518 4.224320847872882 1.9521989146314487 4.911460195362865 L 2.1622927359655626 5.530162393670711 C 1.3225286355158246 5.245866052238368 0.703123687581195 4.291258376823429 0.703123687581195 3.1599323750419175 Z M 2.927666444682791 5.5972861569825785 L 2.617964149529077 4.6853353815616 C 2.474151914296791 4.2617736686970416 2.5940567711340967 3.7926026868894676 2.923493650500104 3.490025136198279 C 3.441555185655692 3.0141979076476297 3.6424152514704455 2.272401993755315 3.4352281346202482 1.6002157545043387 L 3.1832754799036533 0.7829517854976092 C 4.032883269064264 1.0590450084622691 4.661663414076297 2.019934539651477 4.661663414076297 3.1599323750419175 C 4.661663414076297 4.4115393992298335 3.903602108740402 5.446770817499289 2.927666444682791 5.5972861569825785 Z" fill="rgb(0,0,0)"/>
</svg>
