<svg xmlns="http://www.w3.org/2000/svg" width="24" height="24" viewBox="0 0 24 24">
  <path fill-rule="nonzero" d="M 11.910468578338623 1.4006248712539673 C 11.805937327444553 0.9210936427116394 11.480156153440475 0.5587500259280205 11.077031135559082 0.47953127324581146 C 7.826249957084656 -0.15984374284744263 4.555312156677246 -0.15984374284744263 1.3045309782028198 0.47953127324581146 C 0.9014059603214264 0.5587500259280205 0.5760935358703136 0.9210936427116394 0.4710935354232788 1.4006248712539673 C 0.15703104436397552 2.8364060819149017 0 4.27593719959259 0 5.715468406677246 L 2.075156092643738 5.715468406677246 C 2.075156092643738 4.679530888795853 2.179218515753746 3.643593728542328 2.3878122568130493 2.6100000143051147 C 2.457656007260084 2.2645312696695328 2.674218602478504 2.0039062947034836 2.942343592643738 1.9471875429153442 C 5.103749871253967 1.486875057220459 7.278281092643738 1.486875057220459 9.439218521118164 1.9471875429153442 C 9.707343511283398 2.0039062947034836 9.923906821757555 2.2645312696695328 9.99375057220459 2.6100000143051147 C 10.202344313263893 3.643593728542328 10.306875228881836 4.679530888795853 10.306875228881836 5.715468406677246 L 12.381563186645508 5.715468406677246 C 12.381563186645508 4.27593719959259 12.224531069397926 2.8364060819149017 11.910468578338623 1.4006248712539673 Z" fill="none"/>
  <path fill-rule="nonzero" d="M 4.379062597864655 0.4739531476511115 C 2.9221875403271316 0.18740626462014726 1.461328150537816 0.029718751397379624 0 0 L 0 1.6050938442010036 C 0.9148594226753545 1.6353750967618095 1.8292499057882674 1.7473126410877928 2.7412499147198637 1.9416095233066613 C 3.009374916132553 1.998328277463113 3.225938235691229 2.258953263311655 3.295781989068108 2.6044220223724124 C 3.5043757388776178 3.638015779767714 3.608906658880481 4.673952804463237 3.608906658880481 5.709890365600586 L 5.683594703674316 5.709890365600586 C 5.683594703674316 4.270359098407771 5.526562579839465 2.8308280994358688 5.212500075605694 1.3950468288233575 C 5.107968820326689 0.9155155802580255 4.78218763265656 0.5531719036411289 4.379062597864655 0.4739531476511115 Z" fill="none"/>
  <path fill-rule="nonzero" d="M 4.379062597864655 0.4739531476511115 C 2.9221875403271316 0.18740626462014726 1.461328150537816 0.029718751397379624 0 0 L 0 1.6050938442010036 C 0.9148594226753545 1.6353750967618095 1.8292499057882674 1.7473126410877928 2.7412499147198637 1.9416095233066613 C 3.009374916132553 1.998328277463113 3.225938235691229 2.258953263311655 3.295781989068108 2.6044220223724124 C 3.5043757388776178 3.638015779767714 3.608906658880481 4.673952804463237 3.608906658880481 5.709890365600586 L 5.683594703674316 5.709890365600586 C 5.683594703674316 4.270359098407771 5.526562579839465 2.8308280994358688 5.212500075605694 1.3950468288233575 C 5.107968820326689 0.9155155802580255 4.78218763265656 0.5531719036411289 4.379062597864655 0.4739531476511115 Z" fill="none"/>
  <path fill-rule="nonzero" d="M 0.19950056076049805 0.4352813959121704 C 0.40809430181980133 1.4688751101493835 0.5126252174377441 2.5048122704029083 0.5126252174377441 3.5407497882843018 L 2.587313175201416 3.5407497882843018 C 2.587313175201416 2.3598278760910034 2.4814222902059555 1.178859382867813 2.2700629234313965 0 L 0 0 C 0.09464062750339508 0.11489062383770943 0.16500056069344282 0.2646563909947872 0.19950056076049805 0.4352813959121704 Z" fill="none"/>
  <path fill-rule="nonzero" d="M 2.38781236683047 0.4352813959121704 C 2.4223123684870975 0.2646563909947872 2.4926715896631784 0.11489062383770943 2.5873122215270996 0 L 0.317249908759303 0 C 0.10589053224645226 1.178859382867813 0 2.3598278760910034 0 3.5407497882843018 L 2.07515618825566 3.5407497882843018 C 2.07515618825566 2.5048122704029083 2.1792186161602998 1.4688751101493835 2.38781236683047 0.4352813959121704 Z" fill="none"/>
  <path fill-rule="nonzero" d="M 3.540509819984436 2.594402375337254 C 2.5014785528182983 2.7458554945002787 1.4560721665620804 2.7458554945002787 0.4170408993959427 2.594402375337254 C 0.28818152099847794 2.5756055010750853 0.18407226260751486 2.4898239310422317 0.15055663883686066 2.3762458039824037 C -0.05016211420297623 1.6959958150212349 -0.050208985805511475 1.0120432601139207 0.15055663883686066 0.33174642190298964 C 0.18407226260751486 0.21816829484316164 0.28818152099847794 0.13233983923896586 0.4170408993959427 0.11358983937226859 C 1.4560721665620804 -0.037863279790756196 2.5014785528182983 -0.037863279790756196 3.540509819984436 0.11358983937226859 C 3.669369198381901 0.1323867136344371 3.773478456772864 0.21816829484316164 3.806994080543518 0.33174642190298964 C 4.00775970518589 1.0120432601139207 4.007712833583355 1.6959958150212349 3.806994080543518 2.3762458039824037 C 3.773478456772864 2.4898239310422317 3.669369198381901 2.5756055010750853 3.540509819984436 2.594402375337254 Z" fill="none"/>
  <path fill-rule="nonzero" d="M 3.540509819984436 2.594402375337254 C 2.5014785528182983 2.7458554945002787 1.4560721665620804 2.7458554945002787 0.4170408993959427 2.594402375337254 C 0.28818152099847794 2.5756055010750853 0.18407226260751486 2.4898239310422317 0.15055663883686066 2.3762458039824037 C -0.05016211420297623 1.6959958150212349 -0.050208985805511475 1.0120432601139207 0.15055663883686066 0.33174642190298964 C 0.18407226260751486 0.21816829484316164 0.28818152099847794 0.13233983923896586 0.4170408993959427 0.11358983937226859 C 1.4560721665620804 -0.037863279790756196 2.5014785528182983 -0.037863279790756196 3.540509819984436 0.11358983937226859 C 3.669369198381901 0.1323867136344371 3.773478456772864 0.21816829484316164 3.806994080543518 0.33174642190298964 C 4.00775970518589 1.0120432601139207 4.007712833583355 1.6959958150212349 3.806994080543518 2.3762458039824037 C 3.773478456772864 2.4898239310422317 3.669369198381901 2.5756055010750853 3.540509819984436 2.594402375337254 Z" fill="none"/>
  <path fill-rule="nonzero" d="M 2.1229687929153442 0.33174069985718824 C 2.08945316914469 0.2181625727973701 1.985343910753727 0.13233448599691328 1.8564845323562622 0.11358448613021763 C 1.239047035574913 0.02358449012283978 0.6193124949932098 -0.012931043230360196 0 0.004037705859703488 C 0.4228125214576721 0.015615830319875838 0.8454377800226212 0.05213136297458389 1.2670315504074097 0.11358448613021763 C 1.3958909288048744 0.1323813603923845 1.5000001871958375 0.2181625727973701 1.5335158109664917 0.33174069985718824 C 1.7342814356088638 1.01203753806806 1.7342345640063286 1.695990808231036 1.5335158109664917 2.3762407971921453 C 1.5000001871958375 2.4898189242519635 1.3958909288048744 2.5756466534245592 1.2670315504074097 2.594396653291255 C 0.8454846739768982 2.655849776446889 0.4228593707084656 2.6923656646339817 0 2.7039437890941542 C 0.6192656457424164 2.720912538184218 1.238999828696251 2.684396649298633 1.8564373254776 2.594396653291255 C 1.9852967038750648 2.5755997790290883 2.089405962266028 2.4898189242519635 2.122921586036682 2.3762407971921453 C 2.3237340822815895 1.695990808231036 2.3237344175577164 1.01203753806806 2.1229687929153442 0.33174069985718824 Z" fill="none"/>
  <path fill-rule="nonzero" d="M 0.6567184925079346 0.07532787322998047 C 0.4380466192960739 0.04345287289470434 0.21914063394069672 0.018421875312924385 0 0 L 0 0.06581246852874756 C 0.022406249307096004 0.06895309360697865 0.04485926125198603 0.07209347246680409 0.06726551055908203 0.07537472248077393 C 0.19612488895654678 0.09417159715667367 0.30023414734750986 0.1799531690776348 0.33374977111816406 0.29353129863739014 C 0.5345153957605362 0.9738281518220901 0.534468524158001 1.6577808111906052 0.33374977111816406 2.3380308151245117 C 0.30023414734750986 2.451608944684267 0.19612488895654678 2.537437391001731 0.06726551055908203 2.556187391281128 C 0.04485926125198603 2.5594686412950978 0.022406249307096004 2.562609020154923 0 2.5657496452331543 L 0 2.6315624713897705 C 0.21909373998641968 2.613093721680343 0.4380466192960739 2.588109598495066 0.6567184925079346 2.55623459815979 C 0.7855778709053993 2.5374377234838903 0.8896871292963624 2.451656151562929 0.9232027530670166 2.338078022003174 C 1.1239215061068535 1.6578280180692673 1.1239683777093887 0.9738750010728836 0.9232027530670166 0.2935781478881836 C 0.8896871292963624 0.17990627512335777 0.7855778709053993 0.09412474790588021 0.6567184925079346 0.07532787322998047 Z" fill="none"/>
  <path fill-rule="nonzero" d="M 0.15051555633544922 1.0222499595578673 C 0.18403118010610342 1.1358280916175496 0.2881404384970665 1.2216565398241526 0.41699981689453125 1.2404065405162488 C 1.456031084060669 1.3918596663464333 2.5014374256134033 1.3918596663464333 3.540468692779541 1.2404065405162488 C 3.6693280711770058 1.2216096654266178 3.773437329567969 1.1358280916175496 3.806952953338623 1.0222499595578673 C 3.9073123298585415 0.6821249501045461 3.9575157165527344 0.34106250857988646 3.9575157165527344 0 L 0 0 C 0 0.34101563697631954 0.05015617981553078 0.6820780785009792 0.15051555633544922 1.0222499595578673 Z" fill="none"/>
  <path fill-rule="nonzero" d="M 3.540509819984436 2.594402375337254 C 2.5014785528182983 2.7458554945002787 1.4560721665620804 2.7458554945002787 0.4170408993959427 2.594402375337254 C 0.28818152099847794 2.5756055010750853 0.18407226260751486 2.4898239310422317 0.15055663883686066 2.3762458039824037 C -0.05016211420297623 1.6959958150212349 -0.050208985805511475 1.0120432601139207 0.15055663883686066 0.33174642190298964 C 0.18407226260751486 0.21816829484316164 0.28818152099847794 0.13233983923896586 0.4170408993959427 0.11358983937226859 C 1.4560721665620804 -0.037863279790756196 2.5014785528182983 -0.037863279790756196 3.540509819984436 0.11358983937226859 C 3.669369198381901 0.1323867136344371 3.773478456772864 0.21816829484316164 3.806994080543518 0.33174642190298964 C 4.00775970518589 1.0120432601139207 4.007712833583355 1.6959958150212349 3.806994080543518 2.3762458039824037 C 3.773431579582393 2.4898239310422317 3.6693223156034946 2.5756055010750853 3.540509819984436 2.594402375337254 Z" fill="none"/>
  <path fill-rule="nonzero" d="M 3.540509819984436 2.594402375337254 C 2.5014785528182983 2.7458554945002787 1.4560721665620804 2.7458554945002787 0.4170408993959427 2.594402375337254 C 0.28818152099847794 2.5756055010750853 0.18407226260751486 2.4898239310422317 0.15055663883686066 2.3762458039824037 C -0.05016211420297623 1.6959958150212349 -0.050208985805511475 1.0120432601139207 0.15055663883686066 0.33174642190298964 C 0.18407226260751486 0.21816829484316164 0.28818152099847794 0.13233983923896586 0.4170408993959427 0.11358983937226859 C 1.4560721665620804 -0.037863279790756196 2.5014785528182983 -0.037863279790756196 3.540509819984436 0.11358983937226859 C 3.669369198381901 0.1323867136344371 3.773478456772864 0.21816829484316164 3.806994080543518 0.33174642190298964 C 4.00775970518589 1.0120432601139207 4.007712833583355 1.6959958150212349 3.806994080543518 2.3762458039824037 C 3.773431579582393 2.4898239310422317 3.6693223156034946 2.5756055010750853 3.540509819984436 2.594402375337254 Z" fill="none"/>
  <path fill-rule="nonzero" d="M 2.1229692618594194 0.33174069985718824 C 2.0894536363314 0.2181625727973701 1.9853443724815505 0.13233448599691328 1.8564849873274463 0.11358448613021763 C 1.239047458171251 0.02358449012283978 0.6193125274663701 -0.012931043230360196 0 0.004037705859703488 C 0.4228125436275119 0.015615830319875838 0.8454374667245943 0.05213136297458389 1.2670312592153183 0.11358448613021763 C 1.3958906443694226 0.1323813603923845 1.4999999082192723 0.2181625727973701 1.5335155337472917 0.33174069985718824 C 1.7342811689166504 1.01203753806806 1.7342342973116573 1.695990808231036 1.5335155337472917 2.3762407971921453 C 1.4999999082192723 2.4898189242519635 1.3958906443694226 2.5756466534245592 1.2670312592153183 2.594396653291255 C 0.8454843606813301 2.655849776446889 0.42285939288076185 2.6923656646339817 0 2.7039437890941542 C 0.6192656782131202 2.720912538184218 1.2390002512901135 2.684396649298633 1.8564377804463088 2.594396653291255 C 1.985297165600413 2.5755997790290883 2.0894064294502623 2.4898189242519635 2.122922054978282 2.3762407971921453 C 2.3236876901476404 1.695990808231036 2.323688025423785 1.01203753806806 2.1229692618594194 0.33174069985718824 Z" fill="none"/>
  <path fill-rule="nonzero" d="M 0.6567192077636719 0.07532787322998047 C 0.4380473345518112 0.04345287289470434 0.21914063394069672 0.018421875312924385 0 0 L 0 0.06581246852874756 C 0.022406249307096004 0.06895309360697865 0.04485926125198603 0.07209347246680409 0.06726551055908203 0.07537472248077393 C 0.19612488895654678 0.09417159715667367 0.30023414734750986 0.1799531690776348 0.33374977111816406 0.29353129863739014 C 0.5345153957605362 0.9738281518220901 0.534468524158001 1.6577808111906052 0.33374977111816406 2.3380308151245117 C 0.30023414734750986 2.451608944684267 0.19612488895654678 2.537437391001731 0.06726551055908203 2.556187391281128 C 0.04485926125198603 2.5594686412950978 0.022406249307096004 2.562609020154923 0 2.5657496452331543 L 0 2.6315624713897705 C 0.21909373998641968 2.613093721680343 0.4380473345518112 2.588109598495066 0.6567192077636719 2.55623459815979 C 0.7855785861611366 2.5374377234838903 0.8896878445520997 2.451656151562929 0.9232034683227539 2.338078022003174 C 1.1239222213625908 1.6578280180692673 1.123969092965126 0.9738750010728836 0.9232034683227539 0.2935781478881836 C 0.889640967361629 0.17990627512335777 0.7855317033827305 0.09412474790588021 0.6567192077636719 0.07532787322998047 Z" fill="none"/>
  <path fill-rule="nonzero" d="M 0.15056276321411133 1.0222499595578673 C 0.18407838698476553 1.1358280916175496 0.2881876453757286 1.2216565398241526 0.41704702377319336 1.2404065405162488 C 1.456078290939331 1.3918596663464333 2.5014846324920654 1.3918596663464333 3.540515899658203 1.2404065405162488 C 3.669375278055668 1.2216096654266178 3.773484536446631 1.1358280916175496 3.807000160217285 1.0222499595578673 C 3.9073595367372036 0.6821249501045461 3.9575629234313965 0.34106250857988646 3.9575629234313965 0 L 0 0 C 0 0.34101563697631954 0.05015651509165764 0.6820780785009792 0.15056276321411133 1.0222499595578673 Z" fill="none"/>
  <path fill-rule="nonzero" d="M 2.5145158767700195 16.443374633789062 L 0 16.443374633789062 L 0 0 L 2.5145158767700195 0 C 3.6104064881801605 0 4.498828411102295 0.8884219229221344 4.498828411102295 1.9843125343322754 L 4.498828411102295 14.459014892578125 C 4.498828411102295 15.55495235323906 3.6104064881801605 16.443374633789062 2.5145158767700195 16.443374633789062 Z" fill="none"/>
  <path fill-rule="nonzero" d="M 0 0 L 0 9.761484146118164 L 2.5145158767700195 9.761484146118164 C 3.6104064881801605 9.761484146118164 4.498828411102295 8.87306222319603 4.498828411102295 7.777171611785889 L 4.498828411102295 0 L 0 0 Z" fill="none"/>
  <path fill-rule="nonzero" d="M 2.5145158767700195 0 L 0 0 L 0 16.443326950073242 L 2.5145158767700195 16.443326950073242 C 3.6104064881801605 16.443326950073242 4.498828411102295 15.554905052914298 4.498828411102295 14.459014473283696 L 4.498828411102295 1.9843589684111218 C 4.498828411102295 0.888421539531085 3.6104064881801605 0 2.5145158767700195 0 Z" fill="none"/>
  <path fill-rule="nonzero" d="M 2.5145158767700195 0 L 0 0 L 0 16.443326950073242 L 2.5145158767700195 16.443326950073242 C 3.6104064881801605 16.443326950073242 4.498828411102295 15.554905052914298 4.498828411102295 14.459014473283696 L 4.498828411102295 1.9843589684111218 C 4.498828411102295 0.888421539531085 3.6104064881801605 0 2.5145158767700195 0 Z" fill="none"/>
  <path fill-rule="nonzero" d="M 19.87954716241818 16.443328857421875 L 1.9843124910557497 16.443328857421875 C 0.8884219035462482 16.443328857421875 0 15.554905503988266 0 14.459014892578125 L 0 1.9843125343322754 C 0 0.8884219229221344 0.8884219035462482 0 1.9843124910557497 0 L 19.879594369295813 0 C 20.975484956805314 0 21.863906860351562 0.8884219229221344 21.863906860351562 1.9843125343322754 L 21.863906860351562 14.459014892578125 C 21.863906860351562 15.554905503988266 20.975484599177456 16.443328857421875 19.87954716241818 16.443328857421875 Z" fill="none"/>
  <path fill-rule="nonzero" d="M 0 0 L 0 7.777124025001899 C 0 8.873014582878799 0.8884219616739097 9.761436462402344 1.9843126208853326 9.761436462402344 L 19.87959423946623 9.761436462402344 C 20.975484898677653 9.761436462402344 21.863906860351562 8.873014582878799 21.863906860351562 7.777124025001899 L 21.863906860351562 0 L 0 0 Z" fill="none"/>
  <path fill-rule="nonzero" d="M 0 0 L 0 7.777124025001899 C 0 8.873014582878799 0.8884219616739097 9.761436462402344 1.9843126208853326 9.761436462402344 L 19.87959423946623 9.761436462402344 C 20.975484898677653 9.761436462402344 21.863906860351562 8.873014582878799 21.863906860351562 7.777124025001899 L 21.863906860351562 0 L 0 0 Z" fill="none"/>
  <path fill-rule="nonzero" d="M 21.132187843322754 10.522266387939453 L 1.5257343649864197 10.522266387939453 C 0.6831093728542328 10.522266387939453 0 9.83920365456775 0 8.996578624250356 L 0 2.051859591008032 C 0 0.9186564504174941 0.9186562299728394 0 2.0518593192100525 0 L 21.948187351226807 0 C 23.08139044046402 0 24.000045776367188 0.9186564504174941 24.000045776367188 2.051859591008032 L 24.000045776367188 3.0610783295223016 C 24.000045776367188 2.9025002021639987 23.943890064954758 2.749031571451904 23.841515064239502 2.6279065607772822 C 23.43787443637848 2.150344052010203 22.657968521118164 2.4357657940324793 22.657968521118164 3.0610783295223016 L 22.657968521118164 8.996531417369555 C 22.657921646115938 9.839203296939866 21.97481283545494 10.522266387939453 21.132187843322754 10.522266387939453 Z" fill="none"/>
  <path fill-rule="nonzero" d="M 3.8658270835876465 0 L 0 0 L 0 10.52221965789795 L 3.049874782562256 10.52221965789795 C 3.8924997746944427 10.52221965789795 4.575608253479004 9.83910973312361 4.575608253479004 8.996484721898735 L 4.575608253479004 3.061031410911366 C 4.575608253479004 2.4357188895901136 5.3555155992507935 2.1502971540350324 5.759156227111816 2.627859651981318 C 5.861531227827072 2.7489846599114434 5.917686939239502 2.9024532871461868 5.917686939239502 3.061031410911366 L 5.917686939239502 2.05181269526436 C 5.917686939239502 0.9186095803503707 4.99903017282486 0 3.8658270835876465 0 Z" fill="none"/>
  <path fill-rule="nonzero" d="M 3.829733928047541 0 L 0 2.281454086303711 L 5.377593867319454 7.6590471267700195 L 11.488781929016113 7.6590471267700195 L 3.829733928047541 0 Z" fill="none"/>
  <path fill-rule="nonzero" d="M 7.835110187530518 5.674687385559082 L 7.835110187530518 4.0102972984313965 L 3.824812889099121 0 L 0 2.282109260559082 L 5.3769378662109375 7.658999919891357 L 5.85084342956543 7.658999919891357 C 6.946687191724777 7.659046794893584 7.835110187530518 6.7706248462200165 7.835110187530518 5.674687385559082 Z" fill="none"/>
  <path fill-rule="nonzero" d="M 3.857256067440689 2.5944500540527433 C 2.725271715870396 2.7459031798828697 1.586349383840071 2.7459031798828697 0.454365032269778 2.5944500540527433 C 0.3139744165157674 2.5756531789631194 0.2005839776668898 2.4898708898983313 0.1640214800188877 2.3762927578386925 C -0.0546503871470527 1.6960427389323112 -0.05469725874829201 1.0120894833645258 0.1640214800188877 0.33174572125101065 C 0.20053710327168284 0.21816758919137194 0.3139744165157674 0.13233984506468388 0.454365032269778 0.11358984437259487 C 1.586349383840071 -0.03786328145753162 2.725271715870396 -0.03786328145753162 3.857256067440689 0.11358984437259487 C 3.9976466831946995 0.13238671946221858 4.111037323209248 0.21816758919137194 4.14759982085725 0.33174572125101065 C 4.36631855962443 1.0120425894092167 4.366271688023191 1.6959969625641165 4.14759982085725 2.376246981470498 C 4.111037323209248 2.4898719851337034 3.99759981159346 2.5756531789631194 3.857256067440689 2.5944500540527433 Z" fill="none"/>
  <path fill-rule="nonzero" d="M 1.7898717450593267 0.004545173505830113 L 1.7018405697296684 0.022638282230907737 C 1.2506686815207642 0.11549765264491654 0.7852936914994769 0.11549765264491654 0.33407490933492284 0.022638282230907737 L 0.2460433763773854 0.004545173505830113 C 0.05399649003280635 -0.03497045036206723 -0.07790970285344352 0.1927008101339656 0.05193405005390646 0.33965393139115135 L 0.8649809613743568 1.2598575965138552 C 0.9462153406301921 1.3518263450323786 1.0896528644991277 1.3518263450323786 1.1709341153588704 1.2598575965138552 L 1.9839810713828054 0.33965393139115135 C 2.113777952686248 0.19265393853248153 1.9819186314039057 -0.03501732475751893 1.7898717450593267 0.004545173505830113 Z" fill="none"/>
  <path fill-rule="nonzero" d="M 2.312906082497456 0.3317406921091513 C 2.2763904573563596 0.21816256004945977 2.162952937080507 0.13233482709860298 2.0225623140665974 0.11358482640650522 C 1.3498591807466354 0.02358482643719738 0.674718768739674 -0.01293106789757557 0 0.0040376819394769906 C 0.46064062034912484 0.015615806909335124 0.9210936648766277 0.052131700545616125 1.380374941664294 0.11358482640650522 C 1.5207655646782041 0.13238170149613768 1.6341562105564251 0.21816256004945977 1.6707187100951524 0.3317406921091513 C 1.8894374601727466 1.0120375602676737 1.8893905885690834 1.6959919557746337 1.6707187100951524 2.3762419746813315 C 1.634203084954056 2.489820106741023 1.5207655646782041 2.57564783969188 1.380374941664294 2.594397840383978 C 0.9210936648766277 2.655850966244867 0.4606874696010457 2.6923668560394423 0.00004684925192082677 2.7039449810093004 C 0.6747187240361893 2.720913730846353 1.3499060299985561 2.6843978403532858 2.0225623140665974 2.594397840383978 C 2.162952937080507 2.5756009652943455 2.2763435829587286 2.489820106741023 2.312906082497456 2.3762419746813315 C 2.53162483257505 1.6959919557746337 2.53162483257505 1.0120375602676737 2.312906082497456 0.3317406921091513 Z" fill="none"/>
  <path fill-rule="nonzero" d="M 0.7154535237429582 0.07532787322998047 C 0.4772347780453017 0.04345287289470434 0.23868750643843478 0.018421875312924385 0 0 L 0 0.0658121109008789 C 0.02442187691857317 0.06895273597911 0.04884391588727845 0.07209383009467274 0.07326579280585162 0.07537508010864258 C 0.21365641601802748 0.09417195478454232 0.32704670442850603 0.17995281144976616 0.36360920401886837 0.2935309410095215 C 0.5823279544053468 0.9738277941942215 0.5822810828016175 1.6577808111906052 0.36360920401886837 2.3380308151245117 C 0.32709357882620316 2.451608944684267 0.21365641601802748 2.5374381062574685 0.07326579280585162 2.5561881065368652 C 0.04884391588727845 2.559469356550835 0.02442187691857317 2.562609020154923 0 2.5657496452331543 L 0 2.631563186645508 C 0.23868750643843478 2.6130944369360805 0.4772347780453017 2.588108883239329 0.7154535237429582 2.5562338829040527 C 0.8558441469551341 2.537437008228153 0.9692347929934904 2.451656151562929 1.0057972925838528 2.338078022003174 C 1.2244691713666018 1.6578280180692673 1.2245160429703312 0.9738750010728836 1.0057972925838528 0.2935781478881836 C 0.9692347929934904 0.17990627512335777 0.8557972753514047 0.09412474790588021 0.7154535237429582 0.07532787322998047 Z" fill="none"/>
  <path fill-rule="nonzero" d="M 0.16401564167965182 1.0222492443021143 C 0.20053126392284404 1.1358273763617965 0.31396859638229546 1.2216565398241526 0.4543592082547133 1.2404065405162488 C 1.586343528527315 1.3918596663464333 2.725265918475086 1.3918596663464333 3.857250238747688 1.2404065405162488 C 3.997640850620106 1.2216096654266178 4.111031487499571 1.1358273763617965 4.147593984136674 1.0222492443021143 C 4.256953350496639 0.682124234848793 4.311609268188477 0.34106250857988646 4.311609268188477 0 L 0 0 C 0 0.34101563697631954 0.054703146919630005 0.6820773632452262 0.16401564167965182 1.0222492443021143 Z" fill="none"/>
  <path fill-rule="nonzero" d="M 3.85725570981283 2.5944500540527433 C 2.725271358242537 2.7459031798828697 1.5863495626540005 2.7459031798828697 0.45436521108370737 2.5944500540527433 C 0.31397459532969685 2.5756531789631194 0.2005839776668898 2.4898708898983313 0.1640214800188877 2.3762927578386925 C -0.0546503871470527 1.6960427389323112 -0.05469725874829201 1.0120894833645258 0.1640214800188877 0.33174572125101065 C 0.20053710327168284 0.21816758919137194 0.31397459532969685 0.13233984506468388 0.45436521108370737 0.11358984437259487 C 1.5863027134045022 -0.03786328145753162 2.725271358242537 -0.03786328145753162 3.85725570981283 0.11358984437259487 C 3.9976463255668406 0.13238671946221858 4.111036965581389 0.21816758919137194 4.147599463229391 0.33174572125101065 C 4.366318201996571 1.0120425894092167 4.366271330395332 1.6959969625641165 4.147599463229391 2.376246981470498 C 4.111036965581389 2.4898719851337034 3.9975994539656012 2.5756531789631194 3.85725570981283 2.5944500540527433 Z" fill="none"/>
  <path fill-rule="nonzero" d="M 1.7898721242955398 0.004545173505830113 L 1.7018413143255624 0.022638282230907737 C 1.2506694657433683 0.11549765264491654 0.7852937789888226 0.11549765264491654 0.3340750364550973 0.022638282230907737 L 0.24604422648512006 0.004545173505830113 C 0.05399735700813951 -0.03497045036206723 -0.07790989717624977 0.1927008101339656 0.05193384432684192 0.33965393139115135 L 0.8649807065886123 1.2598575965138552 C 0.9462150787095811 1.3518263450323786 1.0896529476081567 1.3518263450323786 1.1709341913289162 1.2598575965138552 L 1.983981075942427 0.33965393139115135 C 2.1137779458457278 0.19265393853248153 1.9819189937725203 -0.03501732475751893 1.7898721242955398 0.004545173505830113 Z" fill="none"/>
  <path fill-rule="nonzero" d="M 2.3129066864385637 0.3317406921091513 C 2.2763910630548767 0.21816256004945977 2.1629535482385003 0.13233482709860298 2.0225629319812537 0.11358482640650522 C 1.349859831036877 0.02358482643719738 0.674718736267081 -0.01293106789757557 0 0.0040376819394769906 C 0.4606405981795987 0.015615806909335124 0.9210936205466032 0.052131700545616125 1.3803748752301652 0.11358482640650522 C 1.5207654914874118 0.13238170149613768 1.6341561319084135 0.21816256004945977 1.6707186296874754 0.3317406921091513 C 1.8894373692386617 1.0120375602676737 1.8893904976372544 1.6959919557746337 1.6707186296874754 2.3762419746813315 C 1.6342030063037885 2.489820106741023 1.5207654914874118 2.57564783969188 1.3803748752301652 2.594397840383978 C 0.9210936205466032 2.655850966244867 0.4606874921327473 2.6923668560394423 0 2.7039449810093004 C 0.6746718423139324 2.720913730846353 1.3498594734090168 2.6843978403532858 2.0225157251037276 2.594397840383978 C 2.162906341360974 2.5756009652943455 2.2762969817819756 2.489820106741023 2.3128594795610375 2.3762419746813315 C 2.5316250907136313 1.6959919557746337 2.53162542598975 1.0120375602676737 2.3129066864385637 0.3317406921091513 Z" fill="none"/>
  <path fill-rule="nonzero" d="M 0.7154531661150861 0.07532787322998047 C 0.4772344204174277 0.04345287289470434 0.23868750643843667 0.018421875312924385 0 0 L 0 0.0658121109008789 C 0.024421876918573362 0.06895273597911 0.04884320063152331 0.07209383009467274 0.07326507755009667 0.07537508010864258 C 0.2136557007622736 0.09417195478454232 0.3270463468006309 0.17995281144976616 0.3636088463909935 0.2935309410095215 C 0.5823275967774737 0.9738277941942215 0.5822807251737443 1.6577808111906052 0.3636088463909935 2.3380308151245117 C 0.327093221198328 2.451608944684267 0.2136557007622736 2.5374381062574685 0.07326507755009667 2.5561881065368652 C 0.04884320063152331 2.559469356550835 0.024421876918573362 2.562609020154923 0 2.5657496452331543 L 0 2.631563186645508 C 0.23868750643843667 2.6130944369360805 0.4772344204174277 2.588108883239329 0.7154531661150861 2.5562338829040527 C 0.855843789327263 2.537437008228153 0.9692344353656204 2.451656151562929 1.005796934955983 2.338078022003174 C 1.2244688137387338 1.6578280180692673 1.2245156853424632 0.9738750010728836 1.005796934955983 0.2935781478881836 C 0.9692344353656204 0.17990627512335777 0.8557969177235337 0.09412474790588021 0.7154531661150861 0.07532787322998047 Z" fill="none"/>
  <path fill-rule="nonzero" d="M 0.16396955028176308 1.0222492443021143 C 0.2004851745441556 1.1358273763617965 0.3139227032661438 1.2216565398241526 0.45431332290172577 1.2404065405162488 C 1.5862977057695389 1.3918596663464333 2.725219577550888 1.3918596663464333 3.857203960418701 1.2404065405162488 C 3.997594580054283 1.2216096654266178 4.1109852232038975 1.1358273763617965 4.147547721862793 1.0222492443021143 C 4.256907094269991 0.682124234848793 4.311563014984131 0.34106250857988646 4.311563014984131 0 L 3.0099123193849664e-8 0 C -0.00004684490310324918 0.34101563697631954 0.05465704947710037 0.6820773632452262 0.16396955028176308 1.0222492443021143 Z" fill="none"/>
  <path fill-rule="nonzero" d="M 0.43317174911499023 2.625410318227857 C 2.5798122882843018 2.3475821784825674 4.7322657108306885 2.3475821784825674 6.87890625 2.625410318227857 C 7.108640626072884 2.6551290697320664 7.31207799911499 2.476394557008695 7.31207799911499 2.2447851722204515 L 7.31207799911499 0.6025195245996484 C 7.31207799911499 0.4092538840401107 7.168405741453171 0.24678518717831077 6.976827621459961 0.22123831023744744 C 4.765077710151672 -0.07374608851132064 2.5469995737075806 -0.07374608851132064 0.335249662399292 0.22123831023744744 C 0.14367154240608215 0.24678518717831077 8.097064352341476e-9 0.4092070124354498 8.097064352341476e-9 0.6025195245996484 L 8.097064352341476e-9 2.2447851722204515 C -0.00004686690516209069 2.476394557008695 0.20343737304210663 2.6551290697320664 0.43317174911499023 2.625410318227857 Z" fill="none"/>
  <path fill-rule="nonzero" d="M 0.43317174911499023 2.625410318227857 C 2.5798122882843018 2.3475821784825674 4.7322657108306885 2.3475821784825674 6.87890625 2.625410318227857 C 7.108640626072884 2.6551290697320664 7.31207799911499 2.476394557008695 7.31207799911499 2.2447851722204515 L 7.31207799911499 0.6025195245996484 C 7.31207799911499 0.4092538840401107 7.168405741453171 0.24678518717831077 6.976827621459961 0.22123831023744744 C 4.765077710151672 -0.07374608851132064 2.5469995737075806 -0.07374608851132064 0.335249662399292 0.22123831023744744 C 0.14367154240608215 0.24678518717831077 8.097064352341476e-9 0.4092070124354498 8.097064352341476e-9 0.6025195245996484 L 8.097064352341476e-9 2.2447851722204515 C -0.00004686690516209069 2.476394557008695 0.20343737304210663 2.6551290697320664 0.43317174911499023 2.625410318227857 Z" fill="none"/>
  <path fill-rule="nonzero" d="M 2.574093818664551 0.20953131199292782 C 1.7167500257492065 0.09520318948508741 0.8585156500339508 0.025734376748439296 0 0 L 0 2.4168749406079444 C 0.825796902179718 2.441578066639991 1.651406854391098 2.5069220860586525 2.47617244720459 2.613656461165147 C 2.7059068232774734 2.6433752119985097 2.90934419631958 2.4646407033097453 2.90934419631958 2.2330313237496626 L 2.90934419631958 0.5908125177483983 C 2.90934419631958 0.3975468815514812 2.7656719386577606 0.23507818835711683 2.574093818664551 0.20953131199292782 Z" fill="none"/>
</svg>
