<svg xmlns="http://www.w3.org/2000/svg" width="24" height="24" viewBox="0 0 24 24">
  <path fill-rule="nonzero" d="M 10.546875 4.21875 C 7.057359337806702 4.21875 4.21875 7.057359337806702 4.21875 10.546875 C 4.21875 11.659218728542328 4.511953309178352 12.753047525882721 5.066062688827515 13.711641311645508 L 16.027688026428223 13.711641311645508 C 16.581797406077385 12.753047525882721 16.875 11.659218728542328 16.875 10.546875 C 16.875 7.057359337806702 14.036390662193298 4.21875 10.546875 4.21875 Z M 10.546875 2.8125 C 10.935515642166138 2.8125 11.25 2.4980156421661377 11.25 2.109375 L 11.25 0.703125 C 11.25 0.3144843578338623 10.935515642166138 0 10.546875 0 C 10.158234357833862 0 9.84375 0.3144843578338623 9.84375 0.703125 L 9.84375 2.109375 C 9.84375 2.4980156421661377 10.158234357833862 2.8125 10.546875 2.8125 Z M 2.109375 9.84375 L 0.703125 9.84375 C 0.3144843578338623 9.84375 0 10.158234357833862 0 10.546875 C 0 10.935515642166138 0.3144843578338623 11.25 0.703125 11.25 L 2.109375 11.25 C 2.4980156421661377 11.25 2.8125 10.935515642166138 2.8125 10.546875 C 2.8125 10.158234357833862 2.4980156421661377 9.84375 2.109375 9.84375 Z M 20.390625 9.84375 L 18.984375 9.84375 C 18.595734357833862 9.84375 18.28125 10.158234357833862 18.28125 10.546875 C 18.28125 10.935515642166138 18.595734357833862 11.25 18.984375 11.25 L 20.390625 11.25 C 20.779265642166138 11.25 21.09375 10.935515642166138 21.09375 10.546875 C 21.09375 10.158234357833862 20.779265642166138 9.84375 20.390625 9.84375 Z M 19.68065643310547 5.2734375 C 19.485656440258026 4.9363125041127205 19.0537496432662 4.820250168442726 18.720046520233154 5.015953302383423 L 17.502609729766846 5.719078302383423 C 17.166140981018543 5.913422048091888 17.050781071186066 6.3432187512516975 17.24512481689453 6.6796875 C 17.439609199762344 7.016437500715256 17.87043786048889 7.130859196186066 18.205734729766846 6.937171697616577 L 19.423171520233154 6.234046697616577 C 19.75959339737892 6.039749823510647 19.8749533072114 5.6099062487483025 19.68065643310547 5.2734375 Z M 14.4140625 3.8486251831054688 C 14.748703122138977 4.0419376865029335 15.179859906435013 3.928499646484852 15.374672412872314 3.5911402702331543 L 16.077797412872314 2.3737034797668457 C 16.27214115858078 2.0372347310185432 16.156781248748302 1.6073904410004616 15.8203125 1.4130935668945312 C 15.48454686999321 1.2173904329538345 15.053999461233616 1.3334534838795662 14.859702587127686 1.6705784797668457 L 14.156577587127686 2.8880152702331543 C 13.96223384141922 3.2244840189814568 14.077593751251698 3.6543283089995384 14.4140625 3.8486251831054688 Z M 5.719078302383423 3.5911402702331543 C 5.913562685251236 3.92789027094841 6.344390630722046 4.042312681674957 6.6796875 3.8486251831054688 C 7.0161562487483025 3.654281437397003 7.131515443325043 3.2244840189814568 6.937171697616577 2.8880152702331543 L 6.234046697616577 1.6705784797668457 C 6.03834356367588 1.3334534838795662 5.608499988913536 1.2173904329538345 5.2734375 1.4130935668945312 C 4.9369687512516975 1.6074373126029968 4.821609556674957 2.0372347310185432 5.015953302383423 2.3737034797668457 L 5.719078302383423 3.5911402702331543 Z M 3.591140627861023 5.719078302383423 L 2.373703122138977 5.015953302383423 C 2.0372343733906746 4.820250168442726 1.6080937385559082 4.9363125041127205 1.4130937457084656 5.2734375 C 1.21875 5.6099062487483025 1.3341093733906746 6.039749823510647 1.670578122138977 6.234046697616577 L 2.888015627861023 6.937171697616577 C 3.22265625 7.130484201014042 3.6538123190402985 7.0170468762516975 3.8486248254776 6.6796875 C 4.042968571186066 6.3432187512516975 3.9276093766093254 5.913375176489353 3.591140627861023 5.719078302383423 Z" fill="none"/>
  <path fill-rule="nonzero" d="M 23.296875 0 L 0.703125 0 C 0.3144843578338623 0 0 0.3144843578338623 0 0.703125 C 0 1.0917656421661377 0.3144843578338623 1.40625 0.703125 1.40625 L 23.296875 1.40625 C 23.685515642166138 1.40625 24 1.0917656421661377 24 0.703125 C 24 0.3144843578338623 23.685515642166138 0 23.296875 0 Z" fill="none"/>
</svg>
