<svg xmlns="http://www.w3.org/2000/svg" width="24" height="24" viewBox="0 0 24 24">
  <path fill-rule="nonzero" d="M 1.5360002517700195 3.833437442779541 L 0 3.833437442779541 L 0 0.7309687435626984 C 0 0.3272812217473984 0.3272809535264969 0 0.7309684753417969 0 L 0.8050782680511475 0 C 1.2087657898664474 0 1.5360467433929443 0.3272812217473984 1.5360467433929443 0.7309687435626984 L 1.5360002517700195 3.833437442779541 Z" fill="rgb(172,166,214)"/>
  <path fill-rule="nonzero" d="M 0.4679532051086426 0 L 0.3938441276550293 0 C 0.2486722581088543 0 0.11376562714576721 0.042843690142035484 0 0.11582806706428528 C 0.2025468796491623 0.245765570551157 0.3371250629425049 0.47245312482118607 0.3371250629425049 0.7309687435626984 L 0.3371250629425049 3.833437442779541 L 1.1988751888275146 3.833437442779541 L 1.1988751888275146 0.7309687435626984 C 1.198922063829741 0.3272812217473984 0.8716407269239426 0 0.4679532051086426 0 Z" fill="rgb(151,142,203)"/>
  <path fill-rule="nonzero" d="M 10.467375755310059 21.772499084472656 L 0 21.772499084472656 L 0 4.3364996910095215 C 0 3.8477340638637543 0.3121405988931656 3.4135312512516975 0.7754062414169312 3.2578125 L 10.467375755310059 0 L 10.467375755310059 21.772499084472656 Z" fill="rgb(200,239,254)"/>
  <path fill-rule="nonzero" d="M 0 0.33956247568130493 L 0 21.772499084472656 L 1.0102972984313965 21.772499084472656 L 1.0102972984313965 0 L 0 0.33956247568130493 Z" fill="rgb(153,230,252)"/>
  <path fill-rule="nonzero" d="M 7.27968692779541 0.7795307478929984 L 7.27968692779541 11.812968254089355 L 0 11.812968254089355 L 0 0 L 6.500155448913574 0 C 6.930936679244041 0 7.27968692779541 0.34874952625689526 7.27968692779541 0.7795307478929984 Z" fill="rgb(245,252,255)"/>
  <path fill-rule="nonzero" d="M 1.0103445053100586 0 L 0 0 C 0.43068748712539673 0 0.779813289642334 0.3491243579130842 0.779813289642334 0.7798118276538136 L 0.779813289642334 11.813156127929688 L 1.790156364440918 11.813156127929688 L 1.790156364440918 0.7798590345305703 C 1.790156364440918 0.34917156478984085 1.4410319924354553 0 1.0103445053100586 0 Z" fill="rgb(221,244,254)"/>
  <path fill-rule="nonzero" d="M 0 2.187140464782715 L 9.475874398785933 2.187140464782715 C 9.76781192038936 2.187140464782715 10.004484176635742 1.9504696503281593 10.004484176635742 1.6585321426391602 L 10.004484176635742 0 L 0 0 L 0 2.187140464782715 Z" fill="rgb(182,196,207)"/>
  <path fill-rule="nonzero" d="M 2.28749942779541 0.004218578338623047 L 2.28749942779541 2.677499771118164 L 0 2.677499771118164 L 0 1.95703125 C 0 0.8760937750339508 0.8765615522861481 0 1.9574990272521973 0 L 2.155780792236328 0 C 2.1998432921245694 0 2.243905677460134 0.0014060784014873207 2.28749942779541 0.004218578338623047 Z" fill="rgb(221,244,254)"/>
  <path fill-rule="nonzero" d="M 0.5286097526550293 0 L 0.5286097526550293 1.6585307121276855 C 0.5286097526550293 1.9504682198166847 0.2919375076889992 2.187140464782715 0 2.187140464782715 L 1.010343074798584 2.187140464782715 C 1.3022805824875832 2.187140464782715 1.5389528274536133 1.9504682198166847 1.5389528274536133 1.6585307121276855 L 1.5389528274536133 0 L 0.5286097526550293 0 Z" fill="rgb(159,172,186)"/>
  <path fill-rule="nonzero" d="M 1.9574060440063477 0 L 2.1558752059936523 0 C 3.2369064688682556 0 4.11328125 0.8763747811317444 4.11328125 1.9574060440063477 L 4.11328125 2.677781581878662 L 0 2.677781581878662 L 0 1.9574060440063477 C 0 0.8763279318809509 0.8763747811317444 0 1.9574060440063477 0 Z" fill="rgb(187,236,108)"/>
  <path fill-rule="nonzero" d="M 0.6044068336486816 0 L 0.40593767166137695 0 C 0.26671892032027245 0 0.1310156285762787 0.014765569008886814 0 0.042421817779541016 C 0.8862187564373016 0.22935931384563446 1.5514698028564453 1.0155935883522034 1.5514698028564453 1.9574060440063477 L 1.5514698028564453 2.677781581878662 L 2.5618128776550293 2.677781581878662 L 2.5618128776550293 1.9574060440063477 C 2.5618128776550293 0.8763279318809509 1.685438096523285 0 0.6044068336486816 0 Z" fill="rgb(162,230,46)"/>
  <path fill-rule="nonzero" d="M 0.5286093950271606 2.1870932579040527 L 2.8250155448913574 2.1870932579040527 L 2.8250155448913574 0 L 0 0 L 0 1.6585307121276855 C 0 1.9504213482141495 0.23667188733816147 2.1870932579040527 0.5286093950271606 2.1870932579040527 Z" fill="rgb(182,196,207)"/>
  <path fill-rule="nonzero" d="M 0 0 L 1.0103435516357422 0 L 1.0103435516357422 2.1870932579040527 L 0 2.1870932579040527 L 0 0 Z" fill="rgb(159,172,186)"/>
  <path fill-rule="nonzero" d="M 2.5485936999320984 0 L 2.8250155448913574 0 L 2.8250155448913574 2.677781581878662 L 0 2.677781581878662 L 0 2.548593521118164 C 0 1.14103102684021 1.1410312056541443 0 2.5485936999320984 0 Z" fill="rgb(187,236,108)"/>
  <path fill-rule="nonzero" d="M 0.7338748737358025 0 C 0.4786873996980928 0 0.23245311647216432 0.037969278171658516 0 0.10776615142822266 L 0 2.677781581878662 L 1.0103435516357422 2.677781581878662 L 1.0103435516357422 0 L 0.7338748737358025 0 Z" fill="rgb(162,230,46)"/>
  <path fill-rule="nonzero" d="M 0 0 L 3.2928271293640137 3.182953119277954 C 3.514639623463154 3.397359363734722 3.6399364471435547 3.6926715821027756 3.6399364471435547 4.001202821731567 L 3.6399364471435547 9.959343910217285 L 0 9.959343910217285 L 0 0 Z" fill="rgb(96,183,255)"/>
  <path fill-rule="nonzero" d="M 3.2928285598754883 3.1829532716732856 L 0 0 L 0 0.9765937795918006 L 2.282531261444092 3.182906064792363 C 2.504343755543232 3.3973123195146013 2.629640579223633 3.6926252672775615 2.629640579223633 4.001156521678396 L 2.629640579223633 9.959297180175781 L 3.6399850845336914 9.959297180175781 L 3.6399850845336914 4.001203013303547 C 3.6398913345292385 3.692671758902712 3.5146410539746284 3.397406398000303 3.2928285598754883 3.1829532716732856 Z" fill="rgb(38,166,254)"/>
  <path fill-rule="nonzero" d="M 4.166531085968018 4.412402153015137 L 0 4.412402153015137 L 0 1.4257146628957624 C 0 1.194152166469647 0.15421859616204114 0.9909964029230595 0.37724984771524783 0.928746406974144 L 3.6494533867713588 0.015246094723906251 C 3.909234635620933 -0.05726953068623324 4.166531085968018 0.13801245763560482 4.166531085968018 0.4077312091105315 L 4.166531085968018 4.412402153015137 Z" fill="rgb(96,183,255)"/>
  <path fill-rule="nonzero" d="M 0.5675153732299805 0.0152608472853899 L 0 0.17369858175516129 C 0.0462656244635582 0.23927670903503895 0.07429647445678711 0.3193865977227688 0.07429647445678711 0.40774597227573395 L 0.07429647445678711 4.412416934967041 L 1.0846402645111084 4.412416934967041 L 1.0846402645111084 0.40774597227573395 C 1.084593389508882 0.13802721351385117 0.8272966146469116 -0.05730165168642998 0.5675153732299805 0.0152608472853899 Z" fill="rgb(38,166,254)"/>
  <path fill-rule="nonzero" d="M 3.6890616416931152 1.3289523124694824 L 0.24135875701904297 1.3289523124694824 C 0.10804625228047371 1.3289523124694824 0 1.2209060601890087 0 1.0875935554504395 L 0 0.24135875701904297 C 0 0.10804625228047371 0.10804625228047371 0 0.24135875701904297 0 L 3.6890616416931152 0 C 3.8223741464316845 0 3.930421829223633 0.10804625228047371 3.930421829223633 0.24135875701904297 L 3.930421829223633 1.0875935554504395 C 3.930421829223633 1.2209060601890087 3.8223741464316845 1.3289523124694824 3.6890616416931152 1.3289523124694824 Z" fill="rgb(200,239,254)"/>
  <path fill-rule="nonzero" d="M 1.010343074798584 0 L 0 0 C 0.13331250473856926 0 0.24135875701904297 0.10804768279194832 0.24135875701904297 0.24136018753051758 L 0.24135875701904297 1.087547779083252 C 0.24135875701904297 1.2208602838218212 0.13331250473856926 1.328906536102295 0 1.328906536102295 L 1.010343074798584 1.328906536102295 C 1.1436555795371532 1.328906536102295 1.2517032623291016 1.2208602838218212 1.2517032623291016 1.087547779083252 L 1.2517032623291016 0.24136018753051758 C 1.2517032623291016 0.10804768279194832 1.1436555795371532 0 1.010343074798584 0 Z" fill="rgb(153,230,252)"/>
  <path fill-rule="nonzero" d="M 3.6890616416931152 1.3289523124694824 L 0.24135875701904297 1.3289523124694824 C 0.10804625228047371 1.3289523124694824 0 1.2209060601890087 0 1.0875935554504395 L 0 0.24135875701904297 C 0 0.10804625228047371 0.10804625228047371 0 0.24135875701904297 0 L 3.6890616416931152 0 C 3.8223741464316845 0 3.930421829223633 0.10804625228047371 3.930421829223633 0.24135875701904297 L 3.930421829223633 1.0875935554504395 C 3.930421829223633 1.2209060601890087 3.8223741464316845 1.3289523124694824 3.6890616416931152 1.3289523124694824 Z" fill="rgb(200,239,254)"/>
  <path fill-rule="nonzero" d="M 1.010343074798584 0 L 0 0 C 0.13331250473856926 0 0.24135875701904297 0.10804768279194832 0.24135875701904297 0.24136018753051758 L 0.24135875701904297 1.087547779083252 C 0.24135875701904297 1.2208602838218212 0.13331250473856926 1.328906536102295 0 1.328906536102295 L 1.010343074798584 1.328906536102295 C 1.1436555795371532 1.328906536102295 1.2517032623291016 1.2208602838218212 1.2517032623291016 1.087547779083252 L 1.2517032623291016 0.24136018753051758 C 1.2517032623291016 0.10804768279194832 1.1436555795371532 0 1.010343074798584 0 Z" fill="rgb(153,230,252)"/>
  <path fill-rule="nonzero" d="M 1.3817338943481445 1.328953742980957 L 0.24135875701904297 1.328953742980957 C 0.10804625228047371 1.328953742980957 0 1.2209060601890087 0 1.0875935554504395 L 0 0.24136018753051758 C 0 0.10804768279194832 0.10804625228047371 0 0.24135875701904297 0 L 1.3817338943481445 0 C 1.5150463990867138 0 1.623094081878662 0.10804768279194832 1.623094081878662 0.24136018753051758 L 1.623094081878662 1.0875935554504395 C 1.623094081878662 1.2209060601890087 1.5150463990867138 1.328953742980957 1.3817338943481445 1.328953742980957 Z" fill="rgb(200,239,254)"/>
  <path fill-rule="nonzero" d="M 1.010343074798584 0 L 0 0 C 0.13331250473856926 0 0.24135875701904297 0.10804768279194832 0.24135875701904297 0.24136018753051758 L 0.24135875701904297 1.0875935554504395 C 0.24135875701904297 1.2209060601890087 0.13331250473856926 1.328953742980957 0 1.328953742980957 L 1.010343074798584 1.328953742980957 C 1.1436555795371532 1.328953742980957 1.2517032623291016 1.2209060601890087 1.2517032623291016 1.0875935554504395 L 1.2517032623291016 0.24136018753051758 C 1.2517032623291016 0.10804768279194832 1.1436555795371532 0 1.010343074798584 0 Z" fill="rgb(153,230,252)"/>
  <path fill-rule="nonzero" d="M 21.69103102503073 17.35660243713221 C 21.50367165473671 17.358805562148426 21.524249349548576 17.349712097534354 21.27515559841796 17.367149598673272 L 21.27515559841796 11.539602521298391 C 21.27515559841796 10.915930606048178 20.767733518922828 10.408509210618183 20.144061642008985 10.408509210618183 L 17.28843749983168 10.408509210618183 C 17.286890624870797 10.408509210618183 17.285436778905133 10.408275321982353 17.28388990394425 10.408275321982353 L 13.995516022134943 10.408275321982353 L 13.995516022134943 1.6292900524824367 L 16.69246783470112 4.236243185797334 C 16.844905336053394 4.3836181944316115 16.932327410929183 4.58968051989845 16.932327410929183 4.801696142631954 L 16.932327410929183 9.102665326185708 C 16.932327410929183 9.296821593561042 17.089733648503472 9.454227840810903 17.28388990394425 9.454227840810903 C 17.478046159385027 9.454227840810903 17.635452396959316 9.296821593561042 17.635452396959316 9.102665326185708 L 17.635452396959316 4.801696142631954 C 17.635452396959316 4.400164876643285 17.469890545409417 4.00978987953656 17.18114055829893 3.730696118104918 L 13.888264856968473 0.5477430899317649 C 13.814249233617847 0.47827433735475056 13.672405965925591 0.4159305380460734 13.531921594700247 0.4672586665224566 L 7.624687520172146 2.452883822439281 L 7.624687520172146 1.0841336403287578 C 7.629140645027791 0.48605549867381537 7.0925157598151785 -0.03449133636026446 6.468281378978605 0.0017899146349657023 C 5.871234494025584 0.0017899146349657023 5.38546861438991 0.4873210990501421 5.38546861438991 1.0841336403287578 L 5.38546861438991 3.205555691557551 L 3.839952988625355 3.72507134675276 C 3.2328748656733577 3.9291651095347087 2.824968639513368 4.496539869208448 2.824968639513368 5.137039875111188 L 2.824968639513368 17.358525044634064 C 1.2605155455963202 17.398603172195404 0 18.68279087778899 0 20.25671280252939 L 0 22.044431649787672 C 0 22.52977542426978 0.39482808818759774 22.924556732177734 0.8801249388828538 22.924556732177734 L 23.11982728799436 22.924556732177734 C 23.605171032642964 22.924556732177734 23.99995231628418 22.529728530313548 23.99995231628418 22.044431649787672 L 23.99995231628418 19.665525300823845 C 23.999999191285475 18.39240025501369 22.964202841833263 17.35660243713221 21.69103102503073 17.35660243713221 Z M 21.69103102503073 18.0597274663826 C 22.57649972882778 18.0597274663826 23.29687453713177 18.780102318967174 23.29687453713177 19.665571077192936 L 23.29687453713177 20.03438413040808 L 19.88671835488562 20.03438413040808 L 19.88671835488562 19.665571077192936 C 19.887515229913095 18.704586687964657 20.731874799094278 17.97647746184647 21.69103102503073 18.0597274663826 Z M 20.572030612387827 11.539602521298391 L 20.572030612387827 17.54855562733803 C 19.755749399348325 17.904899403248592 19.183593368855487 18.719447110002005 19.183593368855487 19.665525300823845 L 19.183593368855487 20.034336923527455 L 13.995516022134943 20.034336923527455 L 13.995516022134943 11.111634239868575 L 20.144061642008985 11.111634239868575 C 20.380030383565607 11.111634239868575 20.572030612387827 11.303633765237052 20.572030612387827 11.539602521298391 Z M 6.088593600420044 1.0841336403287578 C 6.088593600420044 0.8750242582390166 6.258937629382808 0.7049150015109448 6.468281378978605 0.7049150015109448 C 6.656297007574434 0.6773056259882282 6.9094687850193175 0.8247273832924058 6.921562534142011 1.0841336403287578 L 6.921562534142011 2.6892277525021853 L 6.088593600420044 2.9692121191225302 L 6.088593600420044 1.0841336403287578 Z M 2.825015488763231 18.060993469090295 L 2.825015488763231 20.03438413040808 L 0.7142812318745723 20.03438413040808 C 0.8236406021089904 18.951477868975594 1.7226561263668625 18.098212222024426 2.825015488763231 18.060993469090295 Z M 0.7031249860301338 22.044477426156764 L 0.7031249860301338 20.737509159658472 L 2.825015488763231 20.737509159658472 L 2.825015488763231 22.221477479296432 L 0.8801718775396818 22.221477479296432 C 0.7825312570724325 22.221477479296432 0.7031249860301338 22.142071181021382 0.7031249860301338 22.044477426156764 Z M 3.528140474793365 5.137039875111188 C 3.528140474793365 4.798883600493676 3.7434841917258175 4.4993523554673684 4.0640154269531665 4.391586724821968 L 13.292436812471088 1.2895867466960034 L 13.292436812471088 3.205133690654986 L 5.624999888241071 5.78246200298192 C 5.440968636354219 5.844290130822226 5.341921683436984 6.043649537450906 5.403796684666327 6.227727672254426 C 5.453156057433945 6.374633931316239 5.59012489090093 6.467352659334775 5.736984258155115 6.467352659334775 C 5.77410925721634 6.467352659334775 5.811890453112086 6.461446872094247 5.849062326568883 6.448931247054152 L 13.292436812471088 3.946977302715739 L 13.292436812471088 5.735493302526409 L 5.624999888241071 8.3127747656006 C 5.440968636354219 8.374649770633328 5.341921683436984 8.574009529301955 5.403796684666327 8.75804079250099 C 5.453156057433945 8.904947051562802 5.59012489090093 8.99766577958134 5.736984258155115 8.99766577958134 C 5.77410925721634 8.99766577958134 5.811890453112086 8.991759277085045 5.849062326568883 8.97924365204495 L 13.292436812471088 6.4772432160816775 L 13.292436812471088 8.265759573520231 L 5.624999888241071 10.8430871705914 C 5.440968636354219 10.904915298431705 5.341921683436984 11.104275062688268 5.403796684666327 11.288353197491789 C 5.453156057433945 11.4352594565536 5.59012489090093 11.527978184572138 5.736984258155115 11.527978184572138 C 5.77410925721634 11.527978184572138 5.811890453112086 11.522071682075842 5.849062326568883 11.509556057035747 L 13.292436812471088 9.0076028279531 L 13.292436812471088 10.758759230910824 C 13.292436812471088 10.759227980919848 13.29239103610481 10.759650182114981 13.29239103610481 10.760118932124005 L 13.29239103610481 10.796165677016514 L 5.624999888241071 13.373398860326429 C 5.440968636354219 13.435273865359155 5.341921683436984 13.63463433928355 5.403796684666327 13.818665602482586 C 5.453156057433945 13.965571861544397 5.59012489090093 14.058290589562935 5.736984258155115 14.058290589562935 C 5.77410925721634 14.058290589562935 5.811890453112086 14.05238408706664 5.849062326568883 14.039868462026545 L 13.292343829227086 11.53786874131904 L 13.292343829227086 13.326430875126684 L 8.504671643084516 14.93574347640726 C 8.320640391197664 14.997571604247566 8.22159379590829 15.196930653248362 8.283468797137633 15.381008788051883 C 8.332828169905252 15.527915047113694 8.469797003372234 15.620633775132232 8.61665637062642 15.620633775132232 C 8.653781369687644 15.620633775132232 8.69156220795553 15.614727272635937 8.728734081412327 15.602211647595842 L 13.292343829227086 14.068181146309836 L 13.292343829227086 22.22143170292734 L 10.255218540524663 22.22143170292734 L 10.255218540524663 18.56832152364269 C 10.255218540524663 18.328884022980283 10.14581228751277 18.108477276632673 9.95507792720998 17.963727267839378 C 9.764343566907188 17.818977259046083 9.522655864106124 17.772852353642083 9.292030865111961 17.837258604130948 L 6.019828199946082 18.750758951123547 C 5.646375082008316 18.85500895438752 5.385562312889635 19.19860217866311 5.385562312889635 19.586352209456468 L 5.385562312889635 22.22143170292734 L 3.528140474793365 22.22143170292734 L 3.528140474793365 5.137039875111188 Z M 6.088687298919769 19.586399416337095 C 6.088687298919769 19.512899415201705 6.138140208136988 19.447790138143016 6.208874579094114 19.428008887744788 L 7.468781084442219 19.076258976108623 L 7.468781084442219 22.221477479296432 L 6.088640807297768 22.221477479296432 L 6.088687298919769 19.586399416337095 Z M 8.171906070472353 22.221477479296432 L 8.171906070472353 18.879947017258342 L 9.481077959515714 18.514462764383094 C 9.498749834354594 18.509494014235063 9.515249467927596 18.51258657446595 9.529921342334344 18.523789699585553 C 9.544593216741092 18.534945950306703 9.552046347616805 18.549946854444034 9.552046347616805 18.568368730523318 L 9.552046347616805 22.221477479296432 L 8.171906070472353 22.221477479296432 Z M 13.995516022134943 22.221477479296432 L 13.995516022134943 20.737509159658472 L 19.183593368855487 20.737509159658472 L 19.183593368855487 22.221477479296432 L 13.995516022134943 22.221477479296432 Z M 23.29687453713177 22.044477426156764 C 23.29687453713177 22.142118052625865 23.21746824373773 22.221477479296432 23.119874494872086 22.221477479296432 L 19.88671835488562 22.221477479296432 L 19.88671835488562 20.737509159658472 L 23.29687453713177 20.737509159658472 L 23.29687453713177 22.044477426156764 Z" fill="rgb(0,0,0)"/>
  <path fill-rule="nonzero" d="M 0.3516109809279442 1.142103672027588 C 0.3887359807267785 1.142103672027588 0.42651715502142906 1.1361971700852571 0.46368902921676636 1.1236815462189909 L 1.7689706683158875 0.6849323004656348 C 1.9530019238591194 0.6231041784241291 2.052048521116376 0.4237451257692817 1.9901735186576843 0.23966700823027004 C 1.9282985161989927 0.055588890691258386 1.728938765823841 -0.043504572996996956 1.5449075102806091 0.018464175020646352 L 0.23962660878896713 0.4572134822412892 C 0.05559535324573517 0.5190416042827949 -0.04345161281526089 0.7184005898824204 0.01842338964343071 0.9024787074214321 C 0.06778276339173317 1.0493380699290902 0.2047516107559204 1.142103672027588 0.3516109809279442 1.142103672027588 Z" fill="rgb(0,0,0)"/>
  <path fill-rule="nonzero" d="M 0.5928740501403809 2.032031536102295 L 4.040576934814453 2.032031536102295 C 4.367530055344105 2.032031536102295 4.633499622344971 1.7660623043775558 4.633499622344971 1.4391560554504395 L 4.633499622344971 0.5929226875305176 C 4.633499622344971 0.26596956700086594 4.367530055344105 0 4.040576934814453 0 L 0.5928740501403809 0 C 0.2659209296107292 0 0 0.26596956700086594 0 0.5929226875305176 L 0 1.4391560554504395 C 0 1.7660623043775558 0.26596780121326447 2.032031536102295 0.5928740501403809 2.032031536102295 Z M 0.703125 0.703125 L 3.9303746223449707 0.703125 L 3.9303746223449707 1.328906536102295 L 0.703125 1.328906536102295 L 0.703125 0.703125 Z" fill="rgb(0,0,0)"/>
  <path fill-rule="nonzero" d="M 0.5928740501403809 2.032031536102295 L 4.040576934814453 2.032031536102295 C 4.367530055344105 2.032031536102295 4.633499622344971 1.7660633996129036 4.633499622344971 1.439110279083252 L 4.633499622344971 0.5928754806518555 C 4.633499622344971 0.2659223601222038 4.367530055344105 0 4.040576934814453 0 L 0.5928740501403809 0 C 0.2659209296107292 0 0 0.2659692317247391 0 0.5928754806518555 L 0 1.439110279083252 C 0 1.7660633996129036 0.26596780121326447 2.032031536102295 0.5928740501403809 2.032031536102295 Z M 0.703125 0.703125 L 3.9303746223449707 0.703125 L 3.9303746223449707 1.328906536102295 L 0.703125 1.328906536102295 L 0.703125 0.703125 Z" fill="rgb(0,0,0)"/>
  <path fill-rule="nonzero" d="M 0.5928740501403809 2.032031536102295 L 1.7332491874694824 2.032031536102295 C 2.060202307999134 2.032031536102295 2.326171875 1.7660623043775558 2.326171875 1.4391560554504395 L 2.326171875 0.5929226875305176 C 2.326171875 0.26596956700086594 2.060202307999134 0 1.7332491874694824 0 L 0.5928740501403809 0 C 0.2659209296107292 0 0 0.26596956700086594 0 0.5929226875305176 L 0 1.4391560554504395 C 0 1.7660623043775558 0.26596780121326447 2.032031536102295 0.5928740501403809 2.032031536102295 Z M 0.703125 0.703125 L 1.623046875 0.703125 L 1.623046875 1.328906536102295 L 0.703125 1.328906536102295 L 0.703125 0.703125 Z" fill="rgb(0,0,0)"/>
</svg>
