<svg xmlns="http://www.w3.org/2000/svg" width="25" height="24" viewBox="0 0 25 24">
  <path fill-rule="nonzero" d="M 3.2139577865600586 2.4000000953674316 C 3.2139577865600586 3.7254835246766387 2.4944888322131487 4.800000190734863 1.6069788932800293 4.800000190734863 C 0.7194689543469102 4.800000190734863 0 3.7254835246766387 0 2.4000000953674316 C 0 1.0745166660582244 0.7194689543469102 0 1.6069788932800293 0 C 2.4944888322131487 0 3.2139577865600586 1.0745166660582244 3.2139577865600586 2.4000000953674316 Z" fill="rgb(255,185,11)"/>
  <path fill-rule="nonzero" d="M 9.659788447959075 4.645124211347035 C 9.545004238944992 5.605124177753367 9.36134915970219 6.199410312398471 9.108823894397869 6.679410295601636 C 8.879255476369702 7.113696008962892 8.60377371955617 7.43369567987356 8.282377939790074 7.845124244689941 L 1.1657573093171605 7.387981382783813 C 1.1657573093171605 7.387981382783813 0.6377501503658682 6.862267047995223 0.29339752332361807 5.5594099351592945 C 0.08678595257160557 4.7822670481206035 -0.05095527989168619 3.7308384875347764 0.017915248253432648 2.3594099018163877 C 0.017915248253432648 1.9022670399102581 0.4770520552326602 1.6736956089571935 0.9361888912889937 1.9022670399102581 C 1.1657573093171605 1.582267042025535 1.4412394218976359 1.2851242744291995 1.7396783543875773 1.0108385463863867 C 2.680908846409711 0.2336956593476962 3.9664920749408465 -0.1777330008361177 5.642341570333165 0.07369557866182108 C 6.308090004508199 0.18798129413835346 7.0427088436782554 0.3936955084269494 7.80028461222453 0.7365526548565465 C 9.567961387254714 1.6051240815790575 9.866400018711088 3.0222670733785453 9.659788447959075 4.645124211347035 Z" fill="rgb(70,64,69)"/>
  <path fill-rule="nonzero" d="M 3.994489575822526 4.548571425808931 C 3.879705377510374 5.508571400031911 3.696050315390694 6.102857539515895 3.4435250736306227 6.582857526627385 C 2.2497694549709397 6.6057146702494 1.2396688163308798 6.605714321136475 1.2396688163308798 6.605714321136475 C 2.180899220597177 3.1771428289239023 1.6528924119082908 1.2342857589947966 0 0 C 0.6657483721038295 0.11428571640708575 1.4003667049145667 0.3199999187467581 2.157942402828095 0.6628570679680154 C 3.902662195279456 1.508571380279585 4.2011011273110626 2.925714274626584 3.994489575822526 4.548571425808931 Z" fill="rgb(40,38,40)"/>
  <path fill-rule="nonzero" d="M 3.2139573097229004 2.4000000953674316 C 3.2139573097229004 3.7254835246766387 2.4944888019667526 4.800000190734863 1.606978873794947 4.800000190734863 C 0.7194689456231417 4.800000190734863 0 3.7254835246766387 0 2.4000000953674316 C 0 1.0745166660582244 0.7194689456231417 0 1.606978873794947 0 C 2.4944888019667526 0 3.2139573097229004 1.0745166660582244 3.2139573097229004 2.4000000953674316 Z" fill="rgb(255,185,11)"/>
  <path fill-rule="nonzero" d="M 0.16069893782459985 1.8372572157325766 C 0.6887062696933242 2.2715429360238866 1.1478420495986938 1.1744001425843194 1.1478420495986938 0.69440015172162 C 0.9871441653915454 -0.7684570515196073 0 0.5343999731151312 0 0.5343999731151312 L 0.16069893782459985 1.8372572157325766 Z" fill="rgb(247,207,159)"/>
  <path fill-rule="nonzero" d="M 0.9871448632420652 1.8372572157325766 C 0.4591375313733409 2.2715429360238866 0 1.1744001425843194 0 0.69440015172162 C 0.16069788420714842 -0.7684570515196073 1.1478420495986938 0.5343999731151312 1.1478420495986938 0.5343999731151312 L 0.9871448632420652 1.8372572157325766 Z" fill="rgb(247,207,159)"/>
  <path fill-rule="nonzero" d="M 3.7190084977944107 6.400000095367432 L 3.2828290347761433 6.400000095367432 C 1.469238534554638 6.400000095367432 0 4.937143126896453 0 3.131428792476657 L 0 0.11428571598870414 C 0 0.04571428367069785 0.04591368025898074 0 0.11478420748912375 0 L 6.9100089405516485 0 C 6.978879467781791 0 7.0247931480407715 0.04571428367069785 7.0247931480407715 0.11428571598870414 L 7.0247931480407715 3.154285586902071 C 7.001836306200863 4.9371427999223965 5.532598998015916 6.400000095367432 3.7190084977944107 6.400000095367432 Z" fill="rgb(252,202,177)"/>
  <path fill-rule="nonzero" d="M 5.417814254760742 0.11428571452813278 L 5.417814254760742 3.154285546590304 C 5.417814254760742 4.959999857933072 3.9485765928031054 6.42285680770874 2.13498608870936 6.42285680770874 L 1.6988066247597957 6.42285680770874 C 1.0789718920484286 6.42285680770874 0.5050505249771648 6.240000002336915 0 5.942857155462905 L 0.32139613194936895 5.942857155462905 L 0.7575755958989333 5.942857155462905 C 2.571166099992679 5.942857155462905 4.040403761950316 4.480000205687237 4.040403761950316 2.674285894344468 L 4.040403761950316 0 L 5.3259865382797775 0 C 5.371900222057626 0 5.417814254760742 0.04571428308646934 5.417814254760742 0.11428571452813278 Z" fill="rgb(234,158,125)"/>
  <path fill-rule="nonzero" d="M 0.6887052059173584 0.4571428596973419 C 0.6887052059173584 0.709615902097612 0.5345332967080433 0.9142857193946838 0.3443526029586792 0.9142857193946838 C 0.1541719092093151 0.9142857193946838 0 0.709615902097612 0 0.4571428596973419 C 0 0.2046698172970718 0.1541719092093151 0 0.3443526029586792 0 C 0.5345332967080433 0 0.6887052059173584 0.2046698172970718 0.6887052059173584 0.4571428596973419 Z" fill="rgb(70,64,69)"/>
  <path fill-rule="nonzero" d="M 1.6069789079567474 0.862360954284668 C 1.5381083805933609 0.862360954284668 1.4692380345342806 0.8395034646577642 1.4233243507656348 0.7709320311949147 C 1.2626264627066288 0.5423605954013626 1.078971549748576 0.45093254424244034 0.9182736616895699 0.45093254424244034 C 0.6887052462671774 0.45093254424244034 0.5050508669595348 0.6566470081180197 0.4361803395961483 0.7252184415808691 C 0.39026665582750264 0.8166470172606819 0.32139578295968385 0.862360954284668 0.22956841542239248 0.862360954284668 C 0.09182736069561945 0.862360954284668 0 0.7709323854168149 0 0.6337895184911159 C 0 0.4509323671314903 0.34435333466746904 0.13093270988002553 0.6427922637699042 0.039504134200212745 C 0.8723606791922967 -0.029067299262636737 1.3544543570526584 -0.07478158369656329 1.7906343408818666 0.496647005787317 C 1.859504868245253 0.5880755814671298 1.8365478501878783 0.7480750592769418 1.7447204826505869 0.8166464927397913 C 1.6988067988819413 0.8395036366597445 1.6528925917253932 0.862360954284668 1.6069789079567474 0.862360954284668 Z" fill="rgb(70,64,69)"/>
  <path fill-rule="nonzero" d="M 0.6887052059173584 0.4571428596973419 C 0.6887052059173584 0.709615902097612 0.5345332967080433 0.9142857193946838 0.3443526029586792 0.9142857193946838 C 0.1541719092093151 0.9142857193946838 0 0.709615902097612 0 0.4571428596973419 C 0 0.2046698172970718 0.1541719092093151 0 0.3443526029586792 0 C 0.5345332967080433 0 0.6887052059173584 0.2046698172970718 0.6887052059173584 0.4571428596973419 Z" fill="rgb(70,64,69)"/>
  <path fill-rule="nonzero" d="M 1.6069789079567474 0.862360954284668 C 1.5381083805933609 0.862360954284668 1.4692380345342806 0.8395034646577642 1.4233243507656348 0.7709320311949147 C 1.2626264627066288 0.5423605954013626 1.078971549748576 0.45093254424244034 0.9182736616895699 0.45093254424244034 C 0.6887052462671774 0.45093254424244034 0.5050508669595348 0.6566470081180197 0.4361803395961483 0.7252184415808691 C 0.39026665582750264 0.8166470172606819 0.32139578295968385 0.862360954284668 0.22956841542239248 0.862360954284668 C 0.09182736069561945 0.862360954284668 0 0.7709323854168149 0 0.6337895184911159 C 0 0.4509323671314903 0.34435333466746904 0.13093270988002553 0.6427922637699042 0.039504134200212745 C 0.8723606791922967 -0.029067299262636737 1.3544543570526584 -0.07478158369656329 1.7906343408818666 0.496647005787317 C 1.859504868245253 0.5880755814671298 1.8365478501878783 0.7480750592769418 1.7447204826505869 0.8166464927397913 C 1.6988067988819413 0.8395036366597445 1.6528925917253932 0.862360954284668 1.6069789079567474 0.862360954284668 Z" fill="rgb(70,64,69)"/>
  <path fill-rule="nonzero" d="M 7.8053258582143386 2.5546989668420577 C 7.070706942965138 2.851841803054883 6.3820027601156175 3.080413578132114 5.785124922263164 3.2175564360948936 C 3.1680451632588134 3.811842108520544 1.698806566493182 3.057555722153257 0.8953171399122942 2.234698628872253 C 0.2066119171286761 1.503270071235986 0 0.7489849382691873 0 0.7489849382691873 C 0.45913681518907873 0.6575563685646539 0.9182739861450856 0.5432704878379978 1.354453955101373 0.474699058856608 C 3.0532601931943137 0.13184192757357738 4.614326065424363 -0.09672943197414381 5.785124922263164 0.04041342598863577 C 7.27731957162767 0.15469913641631267 8.126721623373356 0.8404133104269045 7.8053258582143386 2.5546989668420577 Z" fill="rgb(70,64,69)"/>
  <path fill-rule="nonzero" d="M 2.0202009824551763 2.560000212262584 C 1.2855820502954205 2.857143062902676 0.5968778515922782 3.085714849077822 0 3.222857713699341 C 0.252525259640334 1.9200005951623462 0.2525249038733978 0.8685714305232217 0.022956490994310023 0 C 1.4921943553138217 0.15999999964249248 2.341596755012562 0.8457144726131953 2.0202009824551763 2.560000212262584 Z" fill="rgb(40,38,40)"/>
  <path fill-rule="nonzero" d="M 5.739209611874819 4.52505350112915 L 0 1.0279108041430978 C 0.5280073136295709 0.1136251146317615 1.584021721955224 -0.2520893846050355 2.3415974375744666 0.18219631246328188 L 6.129476070404053 2.353624770557032 L 5.739209611874819 4.52505350112915 Z" fill="rgb(251,231,202)"/>
  <path fill-rule="nonzero" d="M 6.129477500915527 1.0285713852225944 L 5.188245633630966 1.5999999325684802 L 4.269972008157593 2.1485708148620706 L 0.3902664659729777 4.525713920593262 L 0 2.377142233800425 L 3.3287418923409753 0.4571428378767086 L 3.512397318022827 0.3657139215290602 L 3.810835195420907 0.1828569607645301 C 4.017446755679078 0.06857125129535294 4.269973403858611 0 4.522498656337126 0 C 5.119376491001469 0 5.762168045252841 0.3885714230943369 6.129477500915527 1.0285713852225944 Z" fill="rgb(251,231,202)"/>
  <path fill-rule="nonzero" d="M 2.6400365829467773 1.0285714438983373 L 1.6988047478523147 1.600000023841858 C 1.1478405695178995 0.6171428227424615 0.45913679703422217 0.3885710859298654 0 0.3657139423915266 L 0.2984378671915139 0.1828569711957633 C 0.5050494203835767 0.06857125520705916 0.7575743084588221 0 1.0100995523009815 0 C 1.6299342392438558 0 2.2727271398460624 0.3885714452607293 2.6400365829467773 1.0285714438983373 Z" fill="rgb(226,170,97)"/>
  <path fill-rule="nonzero" d="M 3.3746553816804936 11.169263960550305 L 0.18365455380017828 9.706406417408752 C 0.06887034820831806 9.660692129403518 0 9.546405719679518 0 9.409262852257836 L 0 8.472120310887389 L 0 8.449263515997703 L 0 5.729263507410521 L 0 3.694977372718492 L 0 2.9178347933856363 L 0 1.7521200524555187 L 0 0.3121201216388085 C 0 0.08354868501861801 0.25252525777542995 -0.07645148818972256 0.4591368223674409 0.03783423012037269 L 5.211202671150257 2.597834433345036 L 5.831037556493101 2.940691588275322 L 5.945821762084961 3.009262844875212 L 5.945821762084961 12.380691528320312 L 4.338842883798917 11.626406833790686 L 3.3746553816804936 11.169263960550305 Z" fill="rgb(255,66,0)"/>
  <path fill-rule="nonzero" d="M 0 12.417673110961914 L 5.831037915671634 9.743388105957097 C 5.9228652802742685 9.697673819762235 5.968778610229492 9.60624525077849 5.968778610229492 9.514816678388767 L 5.968778610229492 0.2576731261798032 C 5.968778610229492 0.07481598140035572 5.76216739050924 -0.06232688399618923 5.601469507585883 0.02910168839353451 L 0 3.0462447986430976 L 0 12.417673110961914 Z" fill="rgb(255,66,0)"/>
  <path fill-rule="nonzero" d="M 5.968778610229492 0.24868573708401953 L 5.968778610229492 9.505830084202993 C 5.968778610229492 9.597258660406963 5.9228652802742685 9.688687233204952 5.831037915671634 9.734401521306937 L 0 12.408686637878418 L 0 10.625828730922983 L 4.453627467157135 8.591544335787214 C 4.54545483175977 8.545830047685229 4.5913681617149935 8.45440147488724 4.5913681617149935 8.36297289868327 L 4.5913681617149935 0.5686860978018762 L 5.601469507585883 0.020114288059145672 C 5.76216739050924 -0.04845714579682153 5.968778610229492 0.0658285846760801 5.968778610229492 0.24868573708401953 Z" fill="rgb(198,47,0)"/>
  <path fill-rule="nonzero" d="M 1.3774104416370392 0 L 0.45913681387901306 0 L 0 1.600000023841858 L 1.8365472555160522 1.600000023841858 L 1.3774104416370392 0 Z" fill="rgb(204,176,121)"/>
  <path fill-rule="nonzero" d="M 0 0 L 1.8365472555160522 0 L 1.8365472555160522 9.371428489685059 L 0 9.371428489685059 L 0 0 Z" fill="rgb(170,5,5)"/>
  <path fill-rule="nonzero" d="M 2.5252525806427 1.3714286088943481 C 2.5252525806427 2.1288477253066893 1.9599555491884488 2.7428572177886963 1.26262629032135 2.7428572177886963 C 0.5652970314542513 2.7428572177886963 0 2.1288477253066893 0 1.3714286088943481 C 0 0.6140094924820071 0.5652970314542513 0 1.26262629032135 0 C 1.9599555491884488 0 2.5252525806427 0.6140094924820071 2.5252525806427 1.3714286088943481 Z" fill="rgb(252,202,177)"/>
  <path fill-rule="nonzero" d="M 2.5252525806427 1.3714286088943481 C 2.5252525806427 2.1288477253066893 1.9599555491884488 2.7428572177886963 1.26262629032135 2.7428572177886963 C 0.5652970314542513 2.7428572177886963 0 2.1288477253066893 0 1.3714286088943481 C 0 0.6140094924820071 0.5652970314542513 0 1.26262629032135 0 C 1.9599555491884488 0 2.5252525806427 0.6140094924820071 2.5252525806427 1.3714286088943481 Z" fill="rgb(252,202,177)"/>
  <path fill-rule="nonzero" d="M 1.8365472555160522 1.3714286088943481 C 1.8365472555160522 2.1257143328871044 1.262626238167286 2.7428572177886963 0.5739210173487663 2.7428572177886963 C 0.3673094565765478 2.7428572177886963 0.1606978821209859 2.6971436283702133 0 2.582857910962351 C 0.4132231215444371 2.3542864761466262 0.6887052208185196 1.8971428980713796 0.6887052208185196 1.3714286088943481 C 0.6887052208185196 0.8457143197173167 0.4132231215444371 0.38857074164207006 0 0.1599993068263454 C 0.1836547282882739 0.06857073153766359 0.3673094565765478 0 0.5739210173487663 0 C 1.2855830569678872 0 1.8365472555160522 0.617142884901592 1.8365472555160522 1.3714286088943481 Z" fill="rgb(234,158,125)"/>
  <path fill-rule="nonzero" d="M 0.012074304095339406 1.8405933533431114 C -0.033839379824888584 1.7263076414892375 0.05798903992262956 1.5891650491844225 0.17277324801278154 1.5663079064730498 C 0.7237374687388614 1.4063079126024103 1.0451328627843202 0.8348792579656119 0.8844349741947761 0.2863078192687483 C 0.8385212902745481 0.17202210741487456 0.9303479568436293 0.03487908425363647 1.0451321649337812 0.012021941542263758 C 1.1599163730239332 -0.033692343880481666 1.2976584732708434 0.05773639556100081 1.3206153152309574 0.17202210741487456 C 1.4813132038205015 0.7205935461117382 2.055233984287727 1.0405934112377506 2.606198205013807 0.880593417367111 C 2.720982413103959 0.8348791319443656 2.8587227618828503 0.9263076585121214 2.881679603842964 1.040593370365995 C 2.9275932877631923 1.154879082219869 2.835766621194111 1.2920221104900764 2.720982413103959 1.314879253201449 C 2.170018192377879 1.4748792470720886 1.8486227846490766 2.04630787446105 2.0093206732386206 2.5948793131579135 C 2.0552343571588487 2.7091650250117874 1.9634059391217484 2.846307617316602 1.8486217310315964 2.869164760027975 C 1.7338375229414444 2.91487904545072 1.5960970646958021 2.823450736865661 1.573140222735688 2.7091650250117874 C 1.412442334146144 2.1605935863149237 0.8385216631456693 1.840593530454052 0.28755744241958964 2.0005935243246915 C 0.17277323432943764 2.0463078097474368 0.0350311460554534 1.9777362130173273 0.012074304095339406 1.8405933533431114 Z" fill="rgb(203,75,207)"/>
  <path fill-rule="nonzero" d="M 1.1177108274689926 2.015808343887329 C 1.0947539851563282 2.015808343887329 1.0488399516057245 2.0158082570348457 1.02588310929306 1.9929511136053837 C 0.911098899440156 1.9472368267464593 0.8651852695482036 1.8100937073152263 0.9110989541735325 1.6958079918709055 C 0.9799694828219437 1.5586651278881527 1.071798193040324 1.421522536383779 1.1636255622909817 1.307236820939458 C 0.9570139900290919 1.2386653889480816 0.7504024588172347 1.1243795508884902 0.5897045677598377 0.9872366869057375 C 0.5437908831345089 1.1243795508884902 0.4978761517333558 1.2386651300936218 0.42900562308494455 1.3529508455379426 C 0.3601350944365333 1.4672365609822635 0.22239368821443598 1.4900939683751553 0.1076094783615319 1.421522536383779 C -0.007174731491372183 1.3529511043924025 -0.03013052531779431 1.2158081177943794 0.03874000333061696 1.1015224023500585 C 0.19943789438801385 0.8500938229229849 0.22239474867360437 0.5529510826582371 0.1535242200251931 0.2786653546927317 C 0.10761053539986426 0.16437963924841076 0.19943720337913637 0.027236603263681363 0.31422141323204045 0.004379459834219203 C 0.4290056230849445 -0.018477683595242957 0.5667477254471733 0.05009392380408979 0.5897045677598377 0.16437963924841073 C 0.7504024588172347 0.7129510951794215 1.3243231933648407 1.0329509158630064 1.8752874225521308 0.8729509169657408 C 1.990071632405035 0.8500937735362786 2.127811983299218 0.9186652140426043 2.150768825611882 1.0329509294869252 C 2.196682510237211 1.147236644931246 2.1048558422579386 1.2843796775099958 1.9900716324050347 1.307236820939458 C 1.6916326977341594 1.3986653946573067 1.4620638127946517 1.6043796701955573 1.3243227554978292 1.8786653981610626 C 1.2784090708725004 1.9700939718789112 1.2095381967196503 2.015808343887329 1.1177108274689926 2.015808343887329 Z" fill="rgb(127,10,137)"/>
  <path fill-rule="nonzero" d="M 0.22369943946569132 3.3312997817993164 C 0.15482891576434224 3.3312997817993164 0.08595769763332956 3.3084422923337584 0.040044016306042096 3.2398708593549386 C -0.028826507395306983 3.1255851422648786 -0.005868614824660501 2.9884419357092606 0.08595874782991442 2.919870502730441 C 0.49918186267132264 2.645584770815162 0.7517060785894156 2.2112996235271054 0.8435334412439905 1.7312996335471245 C 0.9353608038985655 1.2512996435671435 0.8205776627498569 0.7712996535871623 0.5450955679444606 0.35987108296208203 C 0.4762250442431115 0.24558536587202212 0.4991811853458379 0.10844214909846474 0.5910085480004128 0.03987071611964496 C 0.7057927496082136 -0.028700716859174816 0.8435341390944899 -0.005844273029410665 0.912404662795839 0.08558430200502917 C 1.2567572676192413 0.5884414681004281 1.394497959255018 1.1827271342987116 1.2797137576472173 1.7998700174841704 C 1.1649295560394166 2.3941557245542113 0.8435341527778331 2.9198705027304404 0.33848365475683523 3.2627276540006203 C 0.3155268140931915 3.33129908697944 0.2696131207929788 3.3312997817993164 0.22369943946569132 3.3312997817993164 Z" fill="rgb(12,78,146)"/>
  <path fill-rule="nonzero" d="M 0.22369829445655987 5.411299228668213 C 0.15482776940313042 5.411299228668213 0.08595830480881403 5.388441740281462 0.04004462258013968 5.319870310539018 C -0.028825902473289762 5.2055845988429175 -0.005869764340719438 5.068441398760067 0.08595760011662924 4.999869969017623 C 0.8205765157754187 4.497012826655644 1.302670122732708 3.719871382211413 1.4633680054018143 2.8512999842201814 C 1.6240658880709207 1.9827285862289499 1.4174540392437645 1.091299631731376 0.9124035313075108 0.35987106597719587 C 0.8435330062540813 0.24558535428109504 0.8664908445420685 0.10844214398030536 0.9583182089994171 0.039870714237861156 C 1.073102412860685 -0.028700715504583037 1.2108438050511288 -0.005844272753577698 1.2797143301045582 0.08558429796569482 C 1.8536353494108977 0.9084414003793512 2.0832031687496677 1.9141560801969446 1.8995484398349705 2.9198703649209015 C 1.7158937109202732 3.9255846496448585 1.164928757908951 4.771299962512945 0.3384825120011712 5.365585641534399 C 0.31552567088683403 5.3884427842142175 0.2696119766852342 5.411299228668213 0.22369829445655987 5.411299228668213 Z" fill="rgb(12,78,146)"/>
  <path fill-rule="nonzero" d="M 1.109333127251271 3.3249874114990234 C 1.0634194467711766 3.3249874114990234 1.0175058997036752 3.3021292222908745 0.971592219223581 3.279272078718511 C 0.46654173052170755 2.9364149302420293 0.12218909784389641 2.410701900211109 0.030361736883707736 1.8164161979834776 C -0.06146562407648094 1.222130495755846 0.05331865067172287 0.6049876244110028 0.3976712491411768 0.10213046241302734 C 0.46654177157173615 -0.012155253745799982 0.6042827480161405 -0.035013444656938786 0.7190669475059585 0.05641512963251498 C 0.8338511469957764 0.12498656205259517 0.8568079444753771 0.2621297606787718 0.7649805835151885 0.37641547683759913 C 0.489498493792951 0.7878440441102423 0.3747144790282618 1.2678440846747228 0.4665418399884505 1.747844070743527 C 0.5583692009486392 2.2278440568123314 0.8338510375290336 2.6392720791282134 1.224117326741089 2.9364149302420293 C 1.338901526230907 3.0049863626621094 1.3618585426439935 3.1421295681002457 1.2700311816838048 3.256415284259073 C 1.2470743414437577 3.3021295714037997 1.1782036496818304 3.3249874114990234 1.109333127251271 3.3249874114990234 Z" fill="rgb(12,78,146)"/>
  <path fill-rule="nonzero" d="M 1.7608019890333058 5.40498685836792 C 1.7148883061785316 5.40498685836792 1.6689746472696088 5.382130414029755 1.6230609644148346 5.35927327146577 C 0.7966147072372586 4.787844715881096 0.22269371431303023 3.9192719598996835 0.06199582945257451 2.9364148006975057 C -0.12165890196652215 1.9307005210702104 0.1079095294115281 0.9478447310718346 0.6818305565441154 0.10213045790738275 C 0.7507010825366945 -0.012155253209552005 0.8884420934718223 -0.03501344311226608 1.0032262988983398 0.05641512714367357 C 1.1180105043248574 0.14784369739961323 1.1409673029917955 0.26212974911450865 1.0491399372822472 0.3764154602314434 C 0.5440894224588955 1.0849868473581694 0.33747795394790664 1.9764162333036357 0.49817583880836236 2.844987626893205 C 0.658873723668818 3.7135590204827746 1.1409672687834367 4.490700460988684 1.8755861944598233 4.9935576008023315 C 1.990370399886341 5.062129030197276 2.013327198553279 5.199272229585126 1.9214998328437307 5.3135579407020606 C 1.8985429914163436 5.382129370097005 1.829672515025885 5.40498685836792 1.7608019890333058 5.40498685836792 Z" fill="rgb(12,78,146)"/>
  <path fill-rule="nonzero" d="M 1.0552283777892337 2.0665042400360107 C 0.963401011260455 2.0665042400360107 0.8945305222826481 2.02078995448476 0.8486168390182587 1.9522185193459232 L 0.02217048552587452 0.3293611166100757 C -0.023743197738514882 0.21507539591998806 -0.0007864433376362917 0.07793226338186333 0.11399776311291926 0.03221797442463229 C 0.2287819695634748 -0.03635346071420422 0.366523067248346 0.009361185870915514 0.4124367505127354 0.12364690656100318 L 1.2388831518968224 1.7465037643400678 C 1.2847968351612118 1.8607894850301554 1.261839861826834 1.9979327197476768 1.1470556553762785 2.043647008704908 C 1.1240988137440837 2.0665041531835233 1.1011420610536231 2.0665042400360107 1.0552283777892337 2.0665042400360107 Z" fill="rgb(12,78,146)"/>
  <path fill-rule="nonzero" d="M 0.2287821264801703 1.2665036916732788 C 0.1369547656208498 1.2665036916732788 0.06808411156376656 1.2207894085608384 0.02217043113410631 1.1522179770802186 C -0.02374324929555394 1.0379322624871583 -0.0007862790889666682 0.900789580042843 0.1139979202747661 0.855075293524423 L 1.7439333993546657 0.032218078291207035 C 1.8587175987183986 -0.036353353189412886 1.9964587905241507 0.009360844773534674 2.042372470953811 0.12364655936659494 C 2.088286151383471 0.23793227395965522 2.065329398399952 0.37507497002788925 1.950545199036219 0.4207892565463093 L 0.3206093983977622 1.243646461561586 C 0.29765255818293207 1.243646461561586 0.27469580690983053 1.2665036916732788 0.2287821264801703 1.2665036916732788 Z" fill="rgb(12,78,146)"/>
  <path fill-rule="nonzero" d="M 1.6113466272231318 0.8960557423679049 C 1.565432943571068 1.3303414659132136 1.175167164468518 1.6503414610840363 0.7160303347895535 1.6046271731402217 C 0.2798503520678746 1.5589128851964071 -0.04154554852217996 1.1703414223470747 0.004368135129883696 0.713198549720889 C 0.05028181878194735 0.25605567709470345 0.46350490879265954 -0.04108718049042422 0.8996848915143384 0.004627107453390297 C 1.3358648742360173 0.050341395397204815 1.6572603108751955 0.4617700188225963 1.6113466272231318 0.8960557423679049 Z" fill="rgb(1,137,239)"/>
  <path fill-rule="nonzero" d="M 1.040558006738978 2.0607895851135254 C 0.994644321959645 2.0607895851135254 0.9716874812803966 2.0607895851135254 0.9257737965010637 2.0607895851135254 C 0.3518527453114929 1.9922181506440237 -0.061370015754268474 1.4893608782495218 0.007500513125148856 0.9179322803768737 C 0.07637104200456618 0.3465036825042256 0.5814211657873213 -0.042067744720239324 1.155342216976892 0.003646543790768495 C 1.66039275297039 0.07221797826027015 2.050658947023786 0.48364657869106775 2.073615789413452 0.9865037557181336 C 2.073615789413452 1.123646624657137 1.9817884266964587 1.215075194867193 1.844047368937624 1.215075194867193 C 1.7063063111787893 1.215075194867193 1.6144790579285488 1.123646624657137 1.6144790579285488 0.9865037557181336 C 1.6144790579285488 0.712218017840127 1.3849113489866163 0.46078942421762437 1.109429233468947 0.4379322799621205 C 0.788033450276125 0.39221799145111264 0.5125505855953633 0.6207893931343933 0.46663690081603043 0.9407894024935085 C 0.443680058426364 1.2836465612170973 0.673249240038211 1.5579323093130437 0.994645023231033 1.6036465978240515 L 1.0635153742269763 1.6036465978240515 C 1.201256431985811 1.6036465978240515 1.2930837947028047 1.695075277025463 1.2930837947028047 1.8322181459644662 C 1.2930837947028047 1.9693610149034695 1.1782990644978126 2.0607895851135254 1.040558006738978 2.0607895851135254 Z" fill="rgb(20,62,196)"/>
  <path fill-rule="nonzero" d="M 0.21915457580534659 1.825952410697937 C 0.1502840508390068 1.825952410697937 0.10437107336057617 1.8030954423538896 0.05845739118996162 1.7573811548498768 C -0.03336997315126749 1.665952579841851 -0.010413482701634239 1.5288102452566792 0.08141388163959487 1.4373816702486535 L 1.5965650614487983 0.06595303831630918 C 1.6883924257900274 -0.02547553669171647 1.8261338178062916 -0.025475884101654453 1.9179611821475206 0.08880983295538772 C 2.0097885464887497 0.18023840796341337 1.9868320560391164 0.31738161447941005 1.8950046916978873 0.4088101894874357 L 0.3798535255720272 1.78023882141978 C 0.33393984340141264 1.8030959651717864 0.2650682579759611 1.825952410697937 0.21915457580534659 1.825952410697937 Z" fill="rgb(12,78,146)"/>
  <path fill-rule="nonzero" d="M 0.21915458272790242 1.2924891710281372 C 0.1502840555861116 1.2924891710281372 0.10437107665740253 1.2696322035395156 0.0584573930364873 1.2239179177463675 C -0.03336997420534315 1.1324893461600714 -0.010413483030570644 0.9953461992723563 0.08141388421125981 0.9039176276860602 L 0.9996875839962519 0.05820316510486876 C 1.0915149512380824 -0.03322540648142736 1.2292563476052594 -0.010367740766976052 1.3210837148470898 0.08106083081932007 C 1.4129110820889201 0.1724894024056162 1.3899545909141475 0.30963174548213224 1.2981272236723171 0.4010603170684284 L 0.37985353757066886 1.2467747115300267 C 0.3339398539497536 1.2696318544266008 0.2880251098696932 1.2924891710281372 0.21915458272790242 1.2924891710281372 Z" fill="rgb(12,78,146)"/>
  <path fill-rule="nonzero" d="M 0.24395003881464072 2.757176399230957 C 0.2209931977644763 2.757176399230957 0.19803600778905628 2.7571767483438734 0.15212232568872738 2.7343196053720185 C 0.03733812214832309 2.688605319428309 -0.0315320469456609 2.551461766777328 0.014381635154667984 2.437176053621044 L 0.9326552600570664 0.1514616815040147 C 0.9785689421573953 0.03717596834773071 1.1163106863088932 -0.031395108048937984 1.2310948898492975 0.01431917789477155 C 1.3458790933897018 0.060033463838481085 1.4147492659045218 0.19717614115268728 1.3688355838041928 0.3114618543089713 L 0.45056195548095834 2.5971762264260008 C 0.4276051144307939 2.7114619395822848 0.33577740301529846 2.757176399230957 0.24395003881464072 2.757176399230957 Z" fill="rgb(12,78,146)"/>
  <path fill-rule="nonzero" d="M 0.22382931890177157 1.3657145500183105 C 0.1320019574192433 1.3657145500183105 0.04017425214272338 1.3200006158068198 0.01721741177209131 1.2285720457520404 C -0.02869626896917283 1.114286334886556 0.017218804052236553 0.9771427849845487 0.1549598496968647 0.9314284999571589 L 2.4506438115016853 0.01714277556750819 C 2.565428011644428 -0.028571509459881485 2.703168000250813 0.017143289870427708 2.7490816809920773 0.15428614835857635 C 2.7949953617333416 0.291429006846725 2.749082036758994 0.405714550819209 2.611340991114366 0.45142883584659865 L 0.31565704299288805 1.3657145500183105 C 0.292700202622256 1.3657145500183105 0.2697429996430357 1.3657145500183105 0.22382931890177157 1.3657145500183105 Z" fill="rgb(12,78,146)"/>
  <path fill-rule="nonzero" d="M 1.4724159623370716 1.580307126045227 C 1.4265022806400771 1.580307126045227 1.3805886228889335 1.580306952340261 1.334674941191939 1.5345926656492004 L 0.07204862439745856 0.3917355154025795 C -0.019778738996530265 0.30030694202045793 -0.019778715050679595 0.16316460987413273 0.049091809205229923 0.07173603649201118 C 0.14091917259921874 -0.01969253689011037 0.2786601834818439 -0.019693061410987797 0.37048754687583274 0.04887837032859324 L 1.6331139115620146 1.191735520575214 C 1.7249412749560034 1.2831640939573357 1.7249411449642427 1.42030729803447 1.656070620708333 1.5117358714165916 C 1.6101569390113386 1.5574501581076523 1.5412864865929812 1.580307126045227 1.4724159623370716 1.580307126045227 Z" fill="rgb(12,78,146)"/>
  <path fill-rule="nonzero" d="M 1.380588648749448 1.5117359161376953 C 1.334674964713471 1.5117359161376953 1.2658044848407914 1.4888789475239517 1.2198908008048144 1.4431646594805427 L 0.07204868964288226 0.39173552699114134 C -0.019778678429071675 0.3003069509043233 -0.019778763949971252 0.16316461470096894 0.049091763814412194 0.0717360386141509 C 0.14091913188636612 -0.01969253747266715 0.2786603071443924 -0.019693061993560093 0.37048767521634635 0.048878371774543364 L 1.5183297863782785 1.1003075042639447 C 1.6101571544502324 1.1917360803507628 1.610157024458465 1.3288784165541172 1.5412864966940816 1.4203069926409353 C 1.4953728126581045 1.4888784264090387 1.4494591765138316 1.5117359161376953 1.380588648749448 1.5117359161376953 Z" fill="rgb(12,78,146)"/>
  <path fill-rule="nonzero" d="M 1.142102835196813 2.7371432781219482 C 1.0502754684342948 2.7371432781219482 0.9584481923239286 2.6914293406083063 0.935491350633299 2.6000007639491742 L 0.017217652220592284 0.31428635428283536 C -0.028696031160666883 0.20000063516191036 0.017217518807990828 0.0628570651353844 0.15495857237260427 0.017142776805818428 C 0.26974277911533423 -0.02857151152374755 0.40748385662579917 0.017143291108775105 0.45339754000705834 0.15428615950345287 L 1.3716712486822729 2.4400005827937115 C 1.417584932063532 2.5542863019146367 1.3716711665822106 2.6914289897923824 1.233930113017597 2.7371432781219482 C 1.1880164296363378 2.7371432781219482 1.1650596768874426 2.7371432781219482 1.142102835196813 2.7371432781219482 Z" fill="rgb(12,78,146)"/>
  <path fill-rule="nonzero" d="M 2.5396340457752755 1.3857477903366089 C 2.516677204312739 1.3857477903366089 2.493720451791935 1.3857481394495392 2.4478067688668617 1.3628909955214616 L 0.1521226431381946 0.4486052520222765 C 0.037338437535928415 0.4028909641661213 -0.03153209027251796 0.26574740577777434 0.014381592652555696 0.15146168784037617 C 0.06029527557762935 0.037175969902978015 0.19803632264243234 -0.03139510936234446 0.3128205282446985 0.014319178493810767 L 2.608504612923335 0.9286049185870162 C 2.7232888185256012 0.9743192064431714 2.7921592112110294 1.111461892900687 2.746245528285956 1.2257476108380851 C 2.723288686823419 1.3400333287754833 2.631461411625423 1.3857477903366089 2.5396340457752755 1.3857477903366089 Z" fill="rgb(12,78,146)"/>
  <path fill-rule="nonzero" d="M 0.32713496685028076 0.6857143640518188 C 0.763314931772884 0.6857143640518188 0.763314931772884 0 0.32713496685028076 0 C -0.10904499807232243 0 -0.10904499807232243 0.6857143640518188 0.32713496685028076 0.6857143640518188 Z" fill="rgb(12,78,146)"/>
</svg>
