<svg xmlns="http://www.w3.org/2000/svg" width="24" height="24" viewBox="0 0 24 24">
  <path fill-rule="nonzero" d="M 17.65106201171875 0 L 0 0 L 2.288624820871674 21.892313924359218 L 2.288624820871674 21.893438306425555 C 2.288624820871674 22.324688315623796 4.831312049049254 22.673439025878906 8.825999498354653 22.673439025878906 C 12.820686947660052 22.673439025878906 15.363373818209773 22.324125811666228 15.363373818209773 21.893438306425555 C 15.363373818209773 21.891938306291216 15.363373818209773 21.89062674479407 15.363373818209773 21.88912674465973 L 17.65106201171875 0 Z" fill="rgb(240,245,249)"/>
  <path fill-rule="nonzero" d="M 0 0.00018739700317382812 L 1.5348747968673706 15.375188827514648 C 2.1427498161792755 15.567751318216324 4.042874693870544 15.816375732421875 7.40943717956543 15.816375732421875 C 10.775999665260315 15.816375732421875 12.67406152188778 15.568499989807606 13.283061504364014 15.375 L 14.817749977111816 0 L 0 0.00018739700317382812 Z" fill="rgb(95,196,248)"/>
  <path fill-rule="nonzero" d="M 14.818124771118164 0.7061247825622559 C 14.818124771118164 1.096106842160225 11.500974655151367 1.4122495651245117 7.409062385559082 1.4122495651245117 C 3.317150115966797 1.4122495651245117 0 1.096106842160225 0 0.7061247825622559 C 0 0.3161427229642868 3.317150115966797 0 7.409062385559082 0 C 11.500974655151367 0 14.818124771118164 0.3161427229642868 14.818124771118164 0.7061247825622559 Z" fill="rgb(61,188,233)"/>
  <path fill-rule="nonzero" d="M 9.764812469482422 22.66687440891387 C 9.461062461171963 22.67162440889408 9.1479994429548 22.673937389415865 8.82562444301108 22.673812389419833 C 7.234133002957549 22.69030527693877 5.643039960359424 22.61367453765804 4.060499767262882 22.444312577351287 C 2.9242497502489306 22.30275008122217 2.28881233558509 22.107937534177957 2.28881233558509 21.892312543182527 L 0 0 L 1.8806248170356765 0 L 4.170187813535396 21.892312543182527 C 4.170187813535396 22.107937534177957 4.805437294749671 22.30275008122217 5.93943729597306 22.444312577351287 C 7.209855881536169 22.584598230257455 8.486696748521343 22.658884884451044 9.764812469482422 22.66687440891387 Z" fill="rgb(255,255,255)"/>
  <path fill-rule="nonzero" d="M 9.428437232971191 22.66912603349376 C 9.2315622468903 22.67381353376075 9.029625440787989 22.673813819793207 8.82562543486011 22.673813819793207 C 7.2340718466613385 22.69030031854814 5.642915583014592 22.61366960516682 4.060312168444324 22.444313993246706 C 2.924062207905716 22.302751488187145 2.288812579451488 22.10793892885322 2.288812579451488 21.892313924255124 L 0 0 L 1.1690625848786231 0 L 3.4574996550775223 21.892313924255124 C 3.4574996550775223 22.10793892885322 4.09274928353175 22.302751488187145 5.228999244070358 22.444313993246706 C 6.623630862828183 22.596192755173856 8.025561576793661 22.671243159133084 9.428437232971191 22.66912603349376 Z" fill="rgb(255,255,255)"/>
  <path fill-rule="nonzero" d="M 17.651248931884766 0.9517500400543213 C 17.651248931884766 1.4773870557546616 13.699882124765047 1.9035000801086426 8.825624465942383 1.9035000801086426 C 3.9513668071197188 1.9035000801086426 0 1.4773870557546616 0 0.9517500400543213 C 0 0.426113024353981 3.9513668071197188 0 8.825624465942383 0 C 13.699882124765047 0 17.651248931884766 0.426113024353981 17.651248931884766 0.9517500400543213 Z" fill="rgb(240,245,249)"/>
  <path fill-rule="nonzero" d="M 9.01256275177002 2.2796860337873923 C 6.922357857227325 2.2925902915578575 4.8328481912612915 2.1992196781392166 2.752125084400177 1.99993593968964 C 0 1.703123465573732 0 1.3371235476451977 0 1.140436053275894 C 0 0.9437485589065902 0 0.577936060323176 2.752125084400177 0.281123586207268 C 4.832837820053101 0.0816732602348316 6.92235267162323 -0.01176007120756996 9.01256275177002 0.0011860890916435183 C 11.103022992610931 -0.01178552285522011 13.192788183689117 0.08164784630574373 15.273749828338623 0.281123586207268 C 18.0258749127388 0.577936060323176 18.025875091552734 0.9437485589065902 18.025875091552734 1.140436053275894 C 18.025875091552734 1.3371235476451977 18.0258749127388 1.7029359568216493 15.273749828338623 1.99993593968964 C 13.192777633666992 2.1992450697165635 11.103017807006836 2.292615719456783 9.01256275177002 2.2796860337873923 Z M 0.4014374613761902 1.140436053275894 C 0.8238749653100967 1.464811039898736 3.9901875257492065 1.9046860533867407 9.012937545776367 1.9046860533867407 C 14.035687565803528 1.9046860533867407 17.202000305056572 1.464811039898736 17.62443780899048 1.140436053275894 C 17.202187791466713 0.8162485754051345 14.03587532043457 0.37618605316504694 9.01256275177002 0.37618605316504694 C 3.9892501831054688 0.37618605316504694 0.8236874788999557 0.8162485754051345 0.4014374613761902 1.140436053275894 Z" fill="rgb(47,58,90)"/>
  <path fill-rule="nonzero" d="M 9.013972997657971 23.054944038391113 C 7.41429643093125 23.071655055508018 5.815010215012839 22.994899693876505 4.2242863252992215 22.825069427490234 C 2.5540363709090355 22.61731941998005 2.299223369638633 22.344506196677685 2.289660870070382 22.10244369506836 L 0.0017861253691574838 0.21331842988729477 C -0.0016780323487164508 0.18840046506375074 -0.00009239092224834836 0.16304017044603825 0.0064488775719366035 0.13874784484505653 C 0.012990146066121555 0.11445551924407482 0.0243531566190908 0.09172800416126847 0.039861153688182986 0.07191872969269753 C 0.05536915075727517 0.05210945522412658 0.07470500504438342 0.03562357323244214 0.09671719116448624 0.023442895151674747 C 0.11872937728458906 0.011262217070907354 0.1429678163859408 0.0036358241632115096 0.1679888472230257 0.0010179296659771353 C 0.1930098780601106 -0.001599964831257239 0.21830188743766057 0.0008442308753728867 0.24235863342575265 0.008204819401726127 C 0.2664153794138447 0.015565407928079367 0.28874486386709725 0.02769192075356841 0.3080173202342606 0.04386219475418329 C 0.32728977660142394 0.060032468754798174 0.343110760911582 0.07991574984043837 0.35453862504164174 0.10232800617814064 C 0.3659664891717015 0.12474026251584291 0.3727674768659683 0.14922304172068834 0.37453610204412735 0.17431840673089027 L 2.6620358716648895 22.05238151550293 C 2.662796593531531 22.05584676610306 2.663360145690469 22.0593523591524 2.6637235175324205 22.062881469726562 C 2.8452235117481397 22.26988146454096 4.599098203126269 22.679944038391113 9.013972997657971 22.679944038391113 C 13.42022288110952 22.679944038391113 15.175597340794527 22.271569579839706 15.363847326159227 22.064382076263428 L 17.652847299945822 0.17431840673089027 C 17.65461592512398 0.14922304172068834 17.66141655519039 0.12474026251584291 17.672844419320448 0.10232800617814064 C 17.684272283450508 0.07991574984043837 17.700093625388526 0.060032468754798174 17.719366081755688 0.04386219475418329 C 17.73863853812285 0.02769192075356841 17.760968380203963 0.015565407928079367 17.785025126192053 0.008204819401726127 C 17.809081872180144 0.0008442308753728867 17.834373523929838 -0.001599964831257239 17.859394554766922 0.0010179296659771353 C 17.884415585604007 0.0036358241632115096 17.908654739961076 0.011262217070907354 17.93066692608118 0.023442895151674747 C 17.952679112201285 0.03562357323244214 17.972014606066562 0.05210945522412658 17.987522603135655 0.07191872969269753 C 18.00303060020475 0.09172800416126847 18.014393790270137 0.11445551924407482 18.020935058764323 0.13874784484505653 C 18.02747632725851 0.16304017044603825 18.02906125325464 0.18840046506375074 18.025597095536764 0.21331842988729477 L 15.739034713238427 22.08575677871704 L 15.739034713238427 22.08725595474243 C 15.739034713238427 22.332880944013596 15.509159750790037 22.612257041037083 13.804034821641013 22.82488203048706 C 12.213190232524918 22.994789499789476 10.613778310414002 23.0716073946096 9.013972997657971 23.054944038391113 Z" fill="rgb(47,58,90)"/>
</svg>
